<svg width="107" height="82" viewBox="0 0 107 82" fill="none" xmlns="http://www.w3.org/2000/svg">
<path d="M70.4373 1.24748C54.4571 -2.35816 52.1341 2.73013 46.3896 5.4367C43.7164 6.6961 40.3164 7.05653 37.4449 7.08191C34.4333 7.10857 32.0405 9.61018 32.199 12.6176C32.3624 15.7105 32.2638 19.443 31.2765 22.3366C29.2259 28.3466 24.4278 31.2213 29.7892 46.7011C29.7892 46.7011 33.2953 63.4374 40.6677 68.7291C48.0399 74.0208 53.7 75.1381 58.4373 75.1175C63.1743 75.0966 69.0381 78.8828 73.1194 77.5701C77.2004 76.2571 82.4238 75.3014 87.3936 71.02C89.8783 68.8791 91.7438 68.6673 93.7849 68.9299C97.5371 69.4125 100.546 66.0474 99.6493 62.3722C99.1612 60.373 99.1642 58.4955 101.015 55.788C104.717 50.3726 105.086 45.0753 105.936 40.8735C106.787 36.6716 102.371 31.2655 101.865 26.5556C101.358 21.8454 99.6182 16.3448 93.5391 9.60713C87.4599 2.86947 70.4373 1.24748 70.4373 1.24748Z" fill="#525E59"/>
<path d="M33.3879 9.01709C39.0316 13.4853 44.5808 18.0593 50.0349 22.7396C55.5098 27.397 60.8977 32.1514 66.2687 36.9249C71.6118 41.7294 76.9363 46.5546 82.1743 51.4769C87.4332 56.3752 92.5952 61.3825 97.6622 66.4961C92.0168 62.0295 86.4663 57.4566 81.0129 52.7752C75.5385 48.1178 70.1506 43.3634 64.7814 38.5878C59.44 33.7816 54.1155 28.9563 48.878 24.0335C43.6198 19.1342 38.4566 14.1285 33.3879 9.01709Z" fill="#7B9D8F"/>
<path d="M53.5686 8.83057C54.7988 9.5662 55.9426 10.3984 57.0558 11.2644C58.1747 12.1245 59.2424 13.0418 60.3002 13.9702C61.3413 14.9167 62.3718 15.8757 63.3512 16.8916C64.3362 17.9015 65.2898 18.9459 66.1567 20.0878C64.9254 19.3534 63.7814 18.5219 62.6682 17.6554C61.5495 16.7951 60.4818 15.8778 59.4254 14.9484C58.385 14.0005 57.3546 13.0415 56.3753 12.0253C55.3909 11.0154 54.4366 9.97125 53.5686 8.83057Z" fill="#7B9D8F"/>
<path d="M70.3201 10.7476C71.5502 11.4832 72.6941 12.3154 73.8072 13.1814C74.9261 14.0414 75.9938 14.9588 77.0516 15.8872C78.0928 16.8337 79.1232 17.7927 80.1027 18.8086C81.0877 19.8185 82.0413 20.8629 82.9081 22.0048C81.6769 21.2704 80.5328 20.4389 79.4197 19.5724C78.301 18.7121 77.2333 17.7948 76.1768 16.8654C75.1365 15.9175 74.106 14.9585 73.1268 13.9422C72.1423 12.9323 71.188 11.8882 70.3201 10.7476Z" fill="#7B9D8F"/>
<path d="M70.7273 26.4626C71.9575 27.1983 73.1013 28.0305 74.2145 28.8965C75.3334 29.7565 76.4011 30.6738 77.4588 31.6023C78.5 32.5487 79.5305 33.5078 80.5099 34.5237C81.4949 35.5336 82.4485 36.578 83.3154 37.7199C82.0841 36.9855 80.9401 36.154 79.8269 35.2875C78.7082 34.4272 77.6405 33.5099 76.5841 32.5805C75.5437 31.6326 74.5133 30.6736 73.534 29.6573C72.5496 28.6474 71.5952 27.6033 70.7273 26.4626Z" fill="#7B9D8F"/>
<path d="M85.7866 29.0283C87.0168 29.764 88.1606 30.5962 89.2738 31.4621C90.3927 32.3222 91.4604 33.2395 92.5182 34.1679C93.5594 35.1144 94.5898 36.0734 95.5693 37.0894C96.5542 38.0992 97.5078 39.1436 98.3747 40.2856C97.1434 39.5511 95.9994 38.7197 94.8862 37.8532C93.7676 36.9929 92.6999 36.0755 91.6434 35.1461C90.603 34.1983 89.5726 33.2392 88.5934 32.223C87.6089 31.2131 86.6546 30.169 85.7866 29.0283Z" fill="#7B9D8F"/>
<path d="M36.1123 28.3508C36.9803 29.4915 37.9346 30.5356 38.919 31.5455C39.8983 32.5618 40.9287 33.5208 41.9691 34.4687C43.0255 35.3981 44.0932 36.3154 45.2119 37.1757C46.3251 38.0422 47.4691 38.8737 48.7004 39.6081C47.8335 38.4662 46.8799 37.4218 45.8949 36.4119C44.9155 35.3959 43.885 34.4369 42.8439 33.4904C41.7861 32.562 40.7184 31.6447 39.5995 30.7846C38.4863 29.9187 37.3425 29.0865 36.1123 28.3508Z" fill="#7B9D8F"/>
<path d="M39.8813 44.7847C40.7493 45.9254 41.7036 46.9695 42.6881 47.9794C43.6673 48.9956 44.6978 49.9546 45.7381 50.9025C46.7946 51.8319 47.8623 52.7492 48.9809 53.6095C50.0941 54.476 51.2382 55.3075 52.4694 56.0419C51.6026 54.9 50.6489 53.8556 49.664 52.8457C48.6845 51.8298 47.6541 50.8708 46.6129 49.9243C45.5551 48.9959 44.4874 48.0786 43.3685 47.2185C42.2553 46.3525 41.1115 45.5203 39.8813 44.7847Z" fill="#7B9D8F"/>
<path d="M55.5444 43.4409C56.4124 44.5816 57.3667 45.6257 58.3512 46.6356C59.3304 47.6518 60.3608 48.6108 61.4012 49.5587C62.4577 50.4881 63.5254 51.4055 64.644 52.2658C65.7572 53.1323 66.9012 53.9637 68.1325 54.6981C67.2657 53.5562 66.312 52.5118 65.3271 51.502C64.3476 50.486 63.3172 49.527 62.276 48.5805C61.2182 47.6521 60.1505 46.7348 59.0316 45.8747C57.9184 45.0088 56.7746 44.1765 55.5444 43.4409Z" fill="#7B9D8F"/>
<path d="M59.7698 58.1211C60.6377 59.2618 61.592 60.3059 62.5765 61.3158C63.5558 62.332 64.5862 63.291 65.6265 64.2389C66.683 65.1683 67.7507 66.0856 68.8694 66.946C69.9825 67.8124 71.1266 68.6439 72.3578 69.3783C71.491 68.2364 70.5374 67.192 69.5524 66.1822C68.5729 65.1662 67.5425 64.2072 66.5013 63.2607C65.4436 62.3323 64.3758 61.415 63.257 60.5549C62.1438 59.6889 61 58.8567 59.7698 58.1211Z" fill="#7B9D8F"/>
<path d="M76.0705 35.7642C74.8333 34.7635 73.396 33.8075 72.8964 32.2966C72.6967 31.6927 72.6305 30.9793 72.1308 30.5858C71.537 30.1181 70.6849 30.3601 69.9395 30.4849C67.4186 30.9073 64.7004 29.5077 63.5803 27.2098C62.7687 25.5452 63.2508 23.9641 61.7385 22.8947C59.9967 21.6629 56.9945 22.0946 55.1517 23.1699C53.3089 24.2448 51.0467 25.3991 49.1684 24.3876C47.9317 23.7215 47.2952 22.2946 46.1604 21.4667C44.6297 20.3499 42.4773 20.5374 40.7286 21.2677C39.5146 21.7741 38.1938 22.5262 36.9726 22.0373C36.2559 21.7506 35.7643 21.0906 35.1257 20.6567C32.8103 19.0843 27.856 20.2954 25.7341 22.1207C23.6121 23.9461 22.6753 26.577 20.1754 25.3179C18.9538 24.7026 17.9862 23.3433 16.6215 23.4348C15.9327 23.4811 15.3318 23.9085 14.8144 24.3652C13.4291 25.5883 12.3411 27.1455 11.6689 28.8667C11.4422 29.4477 11.2524 30.0631 10.8411 30.5313C9.63149 31.9091 7.25055 31.3368 5.77499 32.4242C4.67945 33.2319 4.37409 34.7951 4.68231 36.1212C4.99047 37.4467 5.7944 38.5941 6.58124 39.7043L40.2212 50.2149C44.4698 49.5766 48.792 50.2209 53.0872 50.3157C57.3824 50.4106 61.9446 49.853 65.3317 47.2101C66.9268 45.9657 68.2365 44.2788 70.1115 43.5185C71.5889 42.9201 73.2419 42.9735 74.7992 42.6328C76.3566 42.2922 77.9949 41.3253 78.2557 39.7523C78.5161 38.1826 77.3077 36.7649 76.0705 35.7642Z" fill="#F0EBDA"/>
<path d="M86.1817 39.004H3.65286H3.082C0.819394 39.004 -0.68751 41.3788 0.317206 43.4063C1.64002 46.0754 2.88619 49.435 3.12267 52.0747C3.12322 52.0812 3.12478 52.0856 3.1254 52.0916C4.16649 63.6628 9.82314 79.0978 32.0995 81.6742C66.9803 85.7081 79.8266 51.0151 81.723 46.416C82.8344 43.7208 85.0312 41.6393 86.6595 40.3775C87.2384 39.929 86.9139 39.004 86.1817 39.004Z" fill="#525E59"/>
<path d="M17.8938 36.7124C19.3218 36.7691 20.3033 34.7504 19.3767 33.6623C18.7322 32.9053 17.5368 32.7206 17.0382 31.8604C16.4546 30.8535 17.2623 29.5013 18.3492 29.0854C19.4362 28.6694 20.6507 28.9088 21.7886 29.1531C22.0601 29.2113 22.3489 29.279 22.54 29.4804C22.6979 29.6469 22.7627 29.8778 22.8418 30.0932C23.4241 31.6784 25.1464 32.7624 26.8275 32.602C28.5086 32.4415 29.9947 31.0512 30.2666 29.3845C30.4014 28.5583 30.302 27.6059 30.8769 26.9975C31.2903 26.56 31.9494 26.4434 32.5481 26.5048C34.6892 26.7247 36.2612 29.229 35.5285 31.2529C36.9622 31.518 38.4683 31.3795 39.8297 30.8575C40.4241 30.6296 41.0249 30.2977 41.3225 29.735C41.5263 29.3496 41.5635 28.9013 41.672 28.479C42.0532 26.9942 43.6555 25.7799 45.1169 26.2428C46.7461 26.7589 47.3464 28.879 48.889 29.6146C50.8638 30.5563 53.0162 28.8103 55.1687 28.4181C55.986 28.2692 56.9882 28.4125 57.3784 29.146C57.54 29.4499 57.5662 29.8049 57.6577 30.1368C57.9287 31.1205 58.784 31.8681 59.7418 32.2203C60.6995 32.5724 61.7505 32.5779 62.7655 32.4737C63.9856 32.3484 65.4323 32.1502 66.2434 33.0702C66.8115 33.7146 66.8078 34.7283 66.4039 35.4863C66 36.2444 65.2686 36.7781 64.4976 37.1565C61.2324 38.7591 56.9744 37.737 54.58 34.999C53.9314 34.2573 53.3785 33.3863 52.5177 32.907C51.8611 32.5414 51.0936 32.4446 50.3475 32.3546C47.9615 32.0667 45.506 31.7831 43.1843 32.4039C42.6253 32.5534 41.9827 32.8765 41.9526 33.4543C41.9295 33.899 42.2952 34.2629 42.6608 34.5172C44.0495 35.4832 45.883 35.7792 47.5052 35.2994C48.0202 35.9359 47.2039 36.8022 46.4536 37.1296C44.6358 37.9227 42.5782 38.1555 40.6292 37.7886C39.5748 37.5901 38.518 37.1979 37.7638 36.4348C37.3104 35.9761 36.9813 35.3987 36.486 34.9856C35.534 34.1912 34.1558 34.1545 32.9392 34.394C31.7227 34.6334 30.5493 35.1073 29.3128 35.2001C27.4615 35.3391 25.5437 34.6193 23.7776 35.1918C23.5969 36.5545 22.3041 37.554 20.9597 37.8407C19.6153 38.1274 18.2221 37.8547 16.8747 37.5823C17.4443 36.5758 18.8521 36.1509 19.8833 36.6744" fill="#F0EAD7"/>
<path d="M6.68555 48.4573C6.68555 48.4573 23.0929 49.6684 32.6661 48.4573H6.68555Z" fill="#7B9D8F"/>
<path d="M40.5781 55.5361C40.5781 55.5361 56.9854 57.8133 66.5587 55.5361H40.5781Z" fill="#7B9D8F"/>
<path d="M38.5398 47.7922C38.5398 47.7922 54.4863 50.0054 63.7907 47.7922H38.5398Z" fill="#7B9D8F"/>
<path d="M10.613 61.0186C10.613 61.0186 27.0203 63.2957 36.5936 61.0186H10.613Z" fill="#7B9D8F"/>
<path d="M24.5605 69.1287C24.5605 69.1287 40.9679 71.4058 50.5411 69.1287H24.5605Z" fill="#7B9D8F"/>
</svg>
