<svg width="97" height="97" viewBox="0 0 97 97" fill="none" xmlns="http://www.w3.org/2000/svg">
<path d="M84.2481 17.3754L84.2477 17.375C84.1522 17.2652 84.0149 17.2001 83.8699 17.1954L83.8382 17.1944L83.8067 17.1915C83.7472 17.1861 83.615 17.2119 83.4732 17.3514L76.6017 24.2245L76.6016 24.2246C76.4087 24.4175 76.3939 24.7267 76.5706 24.9388C82.1076 31.5258 85.1542 39.8942 85.1542 48.5015C85.1542 57.1094 82.1051 65.4763 76.5701 72.0648M84.2481 17.3754L75.8316 23.4545C75.2382 24.0479 75.1977 24.9954 75.7362 25.6387C81.1085 32.0294 84.0651 40.1499 84.0651 48.5015C84.0651 56.8531 81.1064 64.9719 75.7362 71.3642C75.1977 72.0059 75.2382 72.9534 75.8316 73.5484M84.2481 17.3754C91.7708 26.0074 95.9109 37.0627 95.9109 48.5027C95.9109 59.9426 91.7692 70.9955 84.248 79.6276L84.2477 79.628C84.1522 79.7377 84.0149 79.8028 83.8699 79.8075L83.8395 79.8085M84.2481 17.3754L85.0691 80.3431C84.7749 80.681 84.3527 80.8816 83.905 80.896C83.8873 80.8977 83.8679 80.8977 83.8501 80.8977C83.4202 80.8977 83.0096 80.7281 82.7054 80.4239L75.8316 73.5484M76.5701 72.0648L75.7363 71.3643L76.5704 72.0643C76.5703 72.0645 76.5702 72.0646 76.5701 72.0648ZM76.5701 72.0648C76.3951 72.2737 76.4072 72.5833 76.6027 72.7794M76.6027 72.7794L76.6017 72.7784L75.8316 73.5484M76.6027 72.7794L75.8316 73.5484M76.6027 72.7794L83.4755 79.6539M83.4755 79.6539L82.7065 80.4229L83.4756 79.654L83.4755 79.6539ZM83.4755 79.6539C83.5724 79.7507 83.7016 79.8058 83.8395 79.8085M83.8395 79.8085L83.837 79.8086L83.8044 79.8116C83.8261 79.8096 83.8425 79.809 83.8501 79.8088C83.8515 79.8087 83.8526 79.8087 83.8534 79.8087C83.8566 79.8086 83.8583 79.8086 83.8576 79.8086L83.8501 79.8086C83.8466 79.8086 83.8431 79.8086 83.8395 79.8085Z" fill="#668075" stroke="black" stroke-width="2.1781"/>
<path d="M21.2642 25.6374L20.4303 24.9369C14.8953 31.5254 11.8462 39.8923 11.8462 48.5002C11.8462 57.1079 14.8931 65.4766 20.4306 72.0638L20.4308 72.064C20.606 72.2723 20.5927 72.5803 20.3996 72.773L20.3987 72.7739L13.5266 79.6476C13.5262 79.648 13.5259 79.6483 13.5256 79.6486C13.4256 79.7475 13.2954 79.8017 13.1604 79.8044L13.1301 79.8034C12.9852 79.7987 12.8478 79.7336 12.7523 79.6238L12.752 79.6235C5.23119 70.9913 1.08905 59.9384 1.08905 48.4986C1.08905 37.0587 5.23119 26.0058 12.752 17.3736L12.7523 17.3733C12.8478 17.2636 12.9851 17.1984 13.1301 17.1937L13.1464 17.1932L13.1626 17.1922C13.2636 17.1859 13.4055 17.2295 13.5256 17.3486C13.5259 17.3489 13.5262 17.3491 13.5265 17.3494L20.3977 24.2223C20.3979 24.2225 20.3981 24.2227 20.3983 24.2229C20.5934 24.4191 20.6051 24.7287 20.43 24.9374L21.2642 25.6374ZM21.2642 25.6374C21.8027 24.9958 21.7622 24.0483 21.1689 23.4533L11.9309 16.6582C4.23749 25.4885 0 36.7955 0 48.4986C0 60.2017 4.23749 71.5087 11.9309 80.3389C12.2251 80.6769 12.6473 80.8774 13.095 80.8919C13.1127 80.8935 13.1321 80.8935 13.1499 80.8935C13.5782 80.8935 13.9888 80.7239 14.2946 80.4198L21.1689 73.5438C21.7618 72.9521 21.8039 72.0047 21.2642 71.363C15.8919 64.9723 12.9353 56.8518 12.9353 48.5002C12.9353 40.1486 15.894 32.0298 21.2642 25.6374Z" fill="#668075" stroke="black" stroke-width="2.1781"/>
<path d="M24.9381 20.4304L24.9373 20.431C24.7311 20.6046 24.4205 20.5938 24.2239 20.3981C24.2237 20.398 24.2236 20.3978 24.2235 20.3977L17.3543 13.5248C17.3541 13.5246 17.3538 13.5244 17.3536 13.5241C17.2483 13.4178 17.1935 13.2743 17.1985 13.1342L17.1985 13.134C17.2038 12.9851 17.2697 12.8482 17.3798 12.7523L17.3802 12.752C26.0107 5.2312 37.064 1.08905 48.5035 1.08905C59.9429 1.08905 70.9958 5.2312 79.6241 12.7523L79.6246 12.7527C79.7342 12.8481 79.8006 12.9866 79.806 13.1345L79.806 13.1347C79.811 13.2747 79.7562 13.4183 79.6508 13.5246C79.6506 13.5248 79.6504 13.525 79.6501 13.5253L72.7803 20.3968C72.7799 20.3971 72.7796 20.3974 72.7793 20.3978C72.6739 20.502 72.539 20.5535 72.4036 20.5535C72.2833 20.5535 72.1636 20.5131 72.0647 20.4303C65.4762 14.8953 57.1093 11.8462 48.5014 11.8462C39.8936 11.8462 31.5266 14.8949 24.9381 20.4304Z" fill="#668075" stroke="black" stroke-width="2.1781"/>
<path d="M72.0636 76.57L72.0657 76.5683C72.2715 76.3945 72.5808 76.4052 72.7771 76.6016L79.6478 83.4751C79.6481 83.4754 79.6484 83.4757 79.6486 83.476C79.7539 83.5822 79.8087 83.7258 79.8036 83.8657L79.8036 83.866C79.7983 84.0148 79.7324 84.1518 79.6223 84.2477L79.6219 84.248C70.9914 91.7688 59.9369 95.9109 48.4986 95.9109C37.0604 95.9109 26.0059 91.7692 17.3772 84.2481L17.3767 84.2477C17.2671 84.1523 17.2007 84.0138 17.1953 83.8659L17.1953 83.8657C17.1903 83.7257 17.2451 83.5821 17.3505 83.4758C17.3507 83.4756 17.3509 83.4754 17.3511 83.4751L24.2234 76.6016C24.2235 76.6016 24.2235 76.6016 24.2235 76.6015C24.4195 76.4056 24.729 76.3945 24.9352 76.5686L24.937 76.5701C31.5255 82.1051 39.8924 85.1541 48.5003 85.1541C57.1081 85.1541 65.4751 82.1055 72.0636 76.57Z" fill="#668075" stroke="black" stroke-width="2.1781"/>
<path d="M49.871 21.775C49.5752 21.3063 49.0594 21.0215 48.5048 21.0199C47.9452 21.0343 47.4282 21.303 47.1306 21.7734C46.8996 22.1386 41.3024 30.7167 27.4832 30.7167C27.0532 30.7167 26.641 30.8863 26.3385 31.1921C26.0344 31.4962 25.8665 31.9097 25.8665 32.3401L25.9263 48.206C25.9263 56.3232 28.5875 63.97 33.4179 69.7318C37.7928 74.9522 42.8672 77.5985 48.4998 77.5985C54.1325 77.5985 59.2072 74.9506 63.5817 69.7318C68.4122 63.97 71.0733 56.3232 71.0733 48.2105L71.1332 32.338C71.1348 31.908 70.9652 31.4958 70.6611 31.19C70.357 30.8859 69.9447 30.7147 69.5164 30.7147C55.7203 30.7167 50.1182 22.1646 49.871 21.775ZM59.5662 42.9014C59.3983 43.1651 59.2315 43.4284 59.0636 43.6904C55.9951 48.5114 52.9283 53.3323 49.8599 58.1533C49.451 58.7966 49.042 59.4403 48.631 60.082C48.2559 60.6721 47.9035 61.2638 47.15 61.3963C45.9554 61.6047 45.3133 60.415 44.7072 59.6066C43.9685 58.6221 43.2295 57.6375 42.4925 56.6546C41.9428 55.9205 41.3915 55.1868 40.8402 54.451C40.8064 54.4073 40.7738 54.3623 40.74 54.3186C40.2031 53.6055 40.3488 52.592 41.0635 52.0568C41.7782 51.5233 42.7916 51.6656 43.3268 52.3803L46.7737 56.9764L56.8357 41.1637C57.3144 40.4119 58.3134 40.1903 59.0681 40.6673C59.8233 41.1493 60.0449 42.1483 59.5662 42.9014Z" fill="#525E59"/>
</svg>
