<svg width="70" height="78" viewBox="0 0 70 78" fill="none" xmlns="http://www.w3.org/2000/svg">
<path d="M23.8339 43.3788C23.6423 43.3788 23.4479 43.3581 23.2531 43.3148C10.7492 40.536 5.40012 32.5844 3.11459 26.403C0.681292 19.8219 1.17365 13.9124 1.19589 13.6639C1.31852 12.2889 2.47066 11.2349 3.8513 11.2349H17.0377C18.6307 11.2349 19.9175 12.5399 19.7837 14.1275C19.6687 15.4938 18.5233 16.5667 17.1273 16.5667H7.64528C7.02221 16.5667 6.53565 17.1023 6.59353 17.7228C6.77253 19.6416 7.20075 22.1391 8.18044 24.7271C10.8611 31.81 16.3215 36.3125 24.4099 38.1099C25.8472 38.4293 26.7535 39.8534 26.434 41.2907C26.1579 42.533 25.056 43.3787 23.8339 43.3788Z" fill="#525E59"/>
<path d="M45.9078 43.3791C46.0995 43.3791 46.2939 43.3583 46.4887 43.3151C58.9928 40.5364 64.3418 32.5847 66.6272 26.4033C69.0605 19.8221 68.5681 13.9126 68.5459 13.6641C68.4233 12.2891 67.2711 11.2351 65.8905 11.2351H52.7041C51.1111 11.2351 49.8243 12.5402 49.958 14.1277C50.0731 15.494 51.2185 16.5669 52.6145 16.5669H62.0965C62.7196 16.5669 63.2061 17.1026 63.1482 17.723C62.9692 19.6419 62.541 22.1393 61.5613 24.7274C58.8806 31.8102 53.4202 36.3127 45.3318 38.1101C43.8945 38.4296 42.9883 39.8537 43.3077 41.291C43.5841 42.5333 44.6859 43.3789 45.9078 43.3791Z" fill="#525E59"/>
<path d="M52.3346 76.8573H17.407C16.8627 76.8573 16.4214 76.416 16.4214 75.8717V70.5047C16.4214 69.9604 16.8627 69.519 17.407 69.519H52.3346C52.8789 69.519 53.3203 69.9604 53.3203 70.5047V75.8717C53.3203 76.416 52.8789 76.8573 52.3346 76.8573Z" fill="#525E59"/>
<path d="M53.3205 70.5042V75.8711C53.3205 76.4164 52.8787 76.8567 52.3348 76.8567H49.2881C49.8319 76.8567 50.2737 76.4164 50.2737 75.8711V70.5042C50.2737 69.9603 49.8319 69.5186 49.2881 69.5186H52.3348C52.8787 69.5186 53.3205 69.9603 53.3205 70.5042Z" fill="#525E59"/>
<path d="M47.034 69.5192H22.7078V65.9833C22.7078 63.8833 24.4101 62.1809 26.5101 62.1809H43.2317C45.3316 62.1809 47.034 63.8833 47.034 65.9833V69.5192Z" fill="#525E59"/>
<path d="M47.0337 65.983V69.5188H44.0372V65.983C44.0372 63.8838 42.3341 62.1807 40.2349 62.1807H43.2314C45.3321 62.1807 47.0337 63.8838 47.0337 65.983Z" fill="#525E59"/>
<path d="M39.8183 48.0232L41.5202 45.2136H28.2214L29.9234 48.0232C31.1113 49.9841 31.75 52.3365 31.75 54.7495C31.75 56.2236 31.5115 57.684 31.0473 59.0519L29.9857 62.1807H39.7557L38.6941 59.0519C38.2299 57.684 37.9913 56.2236 37.9913 54.7495C37.9916 52.3365 38.6304 49.9841 39.8183 48.0232Z" fill="#525E59"/>
<path d="M38.46 51.217C38.1523 52.3519 37.9924 53.5432 37.9924 54.7497C37.9924 56.2244 38.23 57.6838 38.6946 59.0518L39.7564 62.1808H36.6579L35.5961 59.0518C35.133 57.6838 34.8938 56.2244 34.8938 54.7497C34.8938 53.5432 35.0538 52.3519 35.3615 51.217C35.6707 50.0821 36.1262 49.0051 36.7203 48.024L38.4235 45.2134H41.5205L39.8189 48.024C39.2248 49.0051 38.7678 50.0821 38.46 51.217Z" fill="#525E59"/>
<path d="M34.8711 47.5459C23.8121 47.5459 14.8472 38.581 14.8472 27.522V7.49805H54.895V27.522C54.895 38.5808 45.9301 47.5459 34.8711 47.5459Z" fill="#525E59"/>
<path d="M54.8945 7.49731V27.5222C54.8945 38.5804 45.9294 47.5455 34.8712 47.5455C34.3014 47.5455 33.7363 47.5211 33.1787 47.4754C43.4463 46.6162 51.5111 38.0106 51.5111 27.5222V7.49731H54.8945Z" fill="#525E59"/>
<path d="M56.2293 7.49797H13.5127C12.7346 7.49797 12.1038 6.86714 12.1038 6.089V2.55155C12.1038 1.77341 12.7346 1.14258 13.5127 1.14258H56.2293C57.0074 1.14258 57.6382 1.77341 57.6382 2.55155V6.089C57.6384 6.86714 57.0075 7.49797 56.2293 7.49797Z" fill="#525E59"/>
<path d="M57.6381 2.55097V6.08826C57.6381 6.86671 57.0074 7.49739 56.2289 7.49739H52.9902C53.7687 7.49739 54.3994 6.86671 54.3994 6.08826V2.55097C54.3994 1.77405 53.7687 1.14185 52.9902 1.14185H56.2289C57.0074 1.14185 57.6381 1.77405 57.6381 2.55097Z" fill="#525E59"/>
<path d="M36.2882 19.0111L37.7534 21.9799C37.9836 22.4464 38.4287 22.7698 38.9435 22.8446L42.2198 23.3206C43.5162 23.5091 44.0338 25.1021 43.0958 26.0166L40.7251 28.3275C40.3526 28.6907 40.1826 29.2138 40.2705 29.7264L40.8302 32.9895C41.0517 34.2807 39.6965 35.2653 38.5369 34.6556L35.6065 33.1151C35.146 32.873 34.596 32.873 34.1355 33.1151L31.2052 34.6556C30.0456 35.2653 28.6904 34.2806 28.9119 32.9895L29.4715 29.7264C29.5594 29.2137 29.3894 28.6905 29.017 28.3275L26.6463 26.0166C25.7082 25.1022 26.2258 23.5091 27.5222 23.3206L30.7986 22.8446C31.3133 22.7698 31.7584 22.4465 31.9886 21.9799L33.4538 19.0111C34.0333 17.8365 35.7084 17.8365 36.2882 19.0111Z" fill="#F9F7F8"/>
<path d="M40.7252 28.3274C40.3519 28.69 40.1828 29.214 40.2697 29.7259L40.8303 32.989C41.0512 34.2808 39.6969 35.2649 38.5361 34.6555L37.3311 34.0218C37.5901 33.6471 37.715 33.1702 37.6266 32.6523L36.9655 28.7966C36.8619 28.1918 37.063 27.5733 37.5032 27.1437L40.3047 24.4138C40.6825 24.0452 40.8608 23.5821 40.8699 23.1235L42.2196 23.3201C43.516 23.5089 44.034 25.1024 43.0956 26.0164L40.7252 28.3274Z" fill="#EFEDEF"/>
<path d="M69.6842 13.5627C69.5077 11.5844 67.877 10.0926 65.8908 10.0926H56.0375V8.64046H56.2293C57.6363 8.64046 58.781 7.4958 58.781 6.08895V2.55151C58.781 1.14467 57.6363 0 56.2293 0H27.2287C26.5978 0 26.0862 0.511399 26.0862 1.14254C26.0862 1.77367 26.5978 2.28507 27.2287 2.28507H56.2293C56.3764 2.28507 56.4959 2.4045 56.4959 2.55151V6.08895C56.4959 6.23596 56.3764 6.35539 56.2293 6.35539H13.5128C13.3658 6.35539 13.2462 6.23596 13.2462 6.08895V2.55151C13.2462 2.4045 13.3658 2.28507 13.5128 2.28507H21.8718C22.5028 2.28507 23.0143 1.77367 23.0143 1.14254C23.0143 0.511399 22.5028 0 21.8718 0H13.5128C12.1058 0 10.9612 1.14467 10.9612 2.55151V6.08895C10.9612 7.4958 12.1058 8.64046 13.5128 8.64046H13.7046V10.0926H3.85139C1.86521 10.0926 0.234426 11.5844 0.0580184 13.5627C0.034863 13.8213 -0.478516 19.9793 2.04314 26.7995C4.3503 33.0395 9.64344 41.0071 21.7711 44.134C23.7234 45.6766 25.9528 46.8837 28.3714 47.666L28.9465 48.6152C30.0334 50.4096 30.6079 52.5309 30.6079 54.7497C30.6079 56.1051 30.3919 57.4292 29.9659 58.6849L29.1674 61.0382H26.5105C23.7839 61.0382 21.5656 63.2566 21.5656 65.9833V68.3766H17.4073C16.2339 68.3766 15.2792 69.3315 15.2792 70.505V75.8718C15.2792 77.0453 16.2339 78 17.4073 78H52.335C53.5084 78 54.4631 77.0453 54.4631 75.8718V70.505C54.4631 69.3315 53.5084 68.3766 52.335 68.3766H48.1767V65.9833C48.1767 63.2566 45.9584 61.0382 43.2319 61.0382H40.5749L39.7764 58.6849C39.3503 57.4293 39.1343 56.1052 39.1343 54.7497C39.1343 52.5311 39.7087 50.4097 40.7957 48.6152L41.3707 47.666C43.7894 46.8837 46.0186 45.6768 47.9711 44.134C60.0987 41.0071 65.3919 33.0395 67.699 26.7995C70.2207 19.9793 69.7073 13.8215 69.6842 13.5627ZM14.1277 31.7403C11.9974 29.7458 10.3654 27.2717 9.24919 24.3229C8.47363 22.274 7.96604 20.0494 7.74012 17.7095H13.7046V27.5219C13.7046 28.966 13.8507 30.3767 14.1277 31.7403ZM4.18653 26.0072C1.84129 19.6641 2.31293 14.0035 2.3341 13.7657C2.40463 12.9745 3.05695 12.3778 3.85139 12.3778H13.7046V15.4245H7.64552C7.02825 15.4245 6.43596 15.6861 6.02038 16.1422C5.60434 16.5989 5.39869 17.2137 5.45612 17.8292C5.69666 20.4072 6.25376 22.8643 7.11203 25.132C8.8071 29.6104 11.5509 33.1073 15.3066 35.5968C16.0456 37.3804 17.0216 39.0418 18.1955 40.5416C9.9178 37.1105 6.01931 30.9639 4.18653 26.0072ZM52.1781 70.6617V75.7149H17.5641V70.6617H52.1781ZM43.2319 63.3233C44.6984 63.3233 45.8917 64.5166 45.8917 65.9833V68.3766H23.8506V65.9833C23.8506 64.5166 25.0439 63.3233 26.5105 63.3233H43.2319ZM37.6126 59.4192L38.1619 61.0382H31.5801L32.1296 59.419C32.636 57.9263 32.8928 56.3553 32.8928 54.7497C32.8928 52.5023 32.3906 50.3325 31.4354 48.408C32.554 48.5914 33.7013 48.6883 34.8711 48.6883C36.0407 48.6883 37.1881 48.5914 38.3066 48.408C37.3515 50.3325 36.8492 52.5023 36.8492 54.7497C36.8493 56.3555 37.106 57.9264 37.6126 59.4192ZM34.8711 46.4031C24.4598 46.4031 15.9897 37.9329 15.9897 27.5219V8.64046H53.7525V27.5219C53.7525 37.9331 45.2823 46.4031 34.8711 46.4031ZM65.5558 26.0072C63.723 30.9641 59.8244 37.1112 51.5462 40.5424C52.7222 39.0398 53.6998 37.3752 54.4394 35.588C57.6642 33.4466 60.1478 30.5625 61.8579 26.9512C62.128 26.381 61.8846 25.6996 61.3144 25.4296C60.7443 25.1597 60.0631 25.4028 59.7928 25.9732C58.7341 28.2091 57.3378 30.1354 55.6136 31.7473C55.8915 30.3815 56.0378 28.9686 56.0378 27.522V17.7096H62.0023C61.8887 18.8852 61.6998 20.051 61.4407 21.1765C61.2992 21.7915 61.6829 22.4048 62.2979 22.5462C62.9123 22.6885 63.526 22.3041 63.6676 21.6891C63.9561 20.4355 64.1642 19.1369 64.2864 17.8292C64.3438 17.2137 64.1381 16.5989 63.7221 16.1422C63.3065 15.6861 62.7142 15.4245 62.097 15.4245H56.0378V12.3778H65.8911C66.6855 12.3778 67.3378 12.9745 67.4084 13.7659C67.4292 14.0035 67.9009 19.6641 65.5558 26.0072Z" fill="black"/>
<path d="M42.384 22.1901L39.1078 21.7141C38.9651 21.6932 38.8418 21.6036 38.778 21.4745L37.3128 18.5057C36.8508 17.5694 35.9151 16.9878 34.871 16.9878C33.8269 16.9878 32.8912 17.5694 32.4292 18.5057L30.964 21.4745C30.9001 21.6038 30.7769 21.6934 30.6342 21.7141L27.358 22.1901C26.3247 22.3402 25.4824 23.0502 25.1597 24.0433C24.8371 25.0364 25.1011 26.106 25.8488 26.8349L28.2194 29.1456C28.3227 29.2463 28.3698 29.3912 28.3454 29.5334L27.7857 32.7965C27.6092 33.8256 28.0243 34.8459 28.869 35.4597C29.7136 36.0732 30.8125 36.1528 31.7369 35.667L34.6671 34.1264C34.7948 34.0593 34.9471 34.0593 35.0748 34.1264L38.0052 35.667C38.4072 35.8783 38.8421 35.9827 39.2748 35.9827C39.837 35.9827 40.3957 35.8064 40.8729 35.4596C41.7177 34.8458 42.1328 33.8253 41.9562 32.7964L41.3965 29.5333C41.3722 29.391 41.4192 29.2461 41.5225 29.1456L43.8934 26.8346C44.641 26.1058 44.905 25.0361 44.5824 24.0432C44.2597 23.0502 43.4171 22.3402 42.384 22.1901ZM42.2982 25.1985L39.9274 27.5095C39.2856 28.1351 38.9928 29.0361 39.1442 29.9196L39.7039 33.1827C39.744 33.4162 39.6119 33.5514 39.5296 33.6112C39.4475 33.6711 39.2781 33.7552 39.0683 33.6446L36.138 32.104C35.7413 31.8954 35.3061 31.7911 34.8708 31.7911C34.4356 31.7911 34.0004 31.8954 33.6037 32.104L30.6735 33.6446C30.4638 33.755 30.2944 33.6709 30.212 33.6112C30.1298 33.5514 29.9978 33.4164 30.0377 33.1827L30.5974 29.9196C30.749 29.0361 30.4562 28.1351 29.8143 27.5093L27.4436 25.1987C27.2739 25.0332 27.3011 24.8463 27.3327 24.7496C27.3641 24.6528 27.4518 24.4856 27.6863 24.4514L30.9624 23.9754C31.8497 23.8464 32.6161 23.2896 33.0128 22.4858L34.4779 19.5171C34.5828 19.3046 34.7691 19.2729 34.8707 19.2729C34.9723 19.2729 35.1586 19.3046 35.2634 19.5171L36.7286 22.4858C37.1253 23.2896 37.8917 23.8465 38.7789 23.9754L42.0552 24.4514C42.2897 24.4856 42.3774 24.6528 42.4088 24.7496C42.4405 24.8463 42.4678 25.0332 42.2982 25.1985Z" fill="black"/>
</svg>
