<svg width="80" height="80" viewBox="0 0 80 80" fill="none" xmlns="http://www.w3.org/2000/svg">
<path d="M40 80C62.0914 80 80 62.0914 80 40C80 17.9086 62.0914 0 40 0C17.9086 0 0 17.9086 0 40C0 62.0914 17.9086 80 40 80Z" fill="#525E59"/>
<path d="M80.0001 40C80.0001 31.9745 77.6369 24.5014 73.568 18.2383C73.568 18.2383 71.2862 21.5717 71.7149 23.7144C72.1434 25.8573 74.661 26.0209 74.4024 27.5928C74.1438 29.1647 72.2866 27.143 70.0005 31.2855C67.7146 35.4283 68.858 41.1442 72.1434 41.572C75.4288 41.9995 80.0001 40 80.0001 40Z" fill="white"/>
<path d="M50.5046 1.3938C55.1604 2.65755 59.4787 4.7413 63.2948 7.47989C63.2948 7.47989 58.6567 6.71489 56.8996 8.28583C55.1428 9.85724 52.5804 13.5721 50.5045 8.28583C48.4289 2.99989 50.5046 1.3938 50.5046 1.3938Z" fill="white"/>
<path d="M9.9248 13.628C17.2557 5.27406 28.0117 0 40 0C40 0 37.2862 1.64313 42.429 4.42875C47.572 7.21469 45.2146 8.50016 44.1432 9.35734C43.072 10.2145 41.2137 7.64313 40 5.92906C38.7861 4.21453 33.5731 1.57203 29.5728 3.00094C25.5726 4.42984 22.1448 5.48531 22.7157 6.81469C23.2865 8.14375 30.1437 5.57328 32.7151 5.71547C35.2865 5.85797 34.4293 7.42906 32.0012 9.28641C29.5728 11.1438 29.2865 13.4292 31.8581 14.8577C34.4293 16.2867 37.5715 16.4297 38.2867 15.5727C39.0014 14.7155 37.0009 9.14406 41.8582 11.5723C46.7156 14.0006 50.7157 15.4303 46.7156 19.0013C42.7153 22.5719 38.1442 26.5733 38.0011 28.8581C37.8579 31.1433 39.4301 33.0019 38.5729 33.1441C37.7157 33.2862 36.929 32.2158 36.3579 31.4295C35.7871 30.6438 33.1437 30.3584 31.8581 30.858C30.5723 31.3575 28.1434 33.2863 29.5009 35.1436C30.8586 37.0013 32.7142 36.143 34.5718 37.0003C36.4292 37.8575 38.1612 41.1198 37.8056 41.8572C37.45 42.5942 35.8667 41.6609 34.5718 39.1433C33.2767 36.6253 30.8476 38.2861 29.1386 37.8575C27.4293 37.4291 26.1436 37.1434 24.4292 34.1433C22.7148 31.1434 19.1656 30.3039 17.7153 28.572C13.5607 23.6111 13.8579 19.8578 13.0009 18.1436C12.1437 16.4289 9.9248 13.628 9.9248 13.628Z" fill="white"/>
<path d="M43.8571 40.5716C43.8571 40.5716 48.1429 40.9994 50.2857 42.857C52.4285 44.7144 52.7148 45.4291 56.0002 46.1431C59.2857 46.8569 60.7146 48.7136 58.5717 52.2855C56.4288 55.8569 52.571 61.5714 50.7143 63.2858C48.8577 65.0003 46.5718 66.4288 45.7146 69.2858C44.8576 72.1425 44.5713 73.8558 46.4287 74.9995C46.4287 74.9995 45.4293 77.4284 43.1434 74.2855C40.8573 71.1422 42.7146 67.4284 43.1434 65.2855C43.5718 63.1428 44.7145 56.7149 44.0002 55.1427C43.2865 53.5709 40.0001 52.5706 39.1429 49.2855C38.2857 46.0002 39.7859 39.6067 43.8571 40.5716Z" fill="white"/>
<path opacity="0.6" d="M11.7158 11.7161C27.3369 -3.90528 52.663 -3.90497 68.2843 11.7161C83.9055 27.3369 83.9055 52.6633 68.2844 68.2844C68.2844 68.2844 86.4325 44.286 60.7386 18.5921C35.0446 -7.102 11.7158 11.7161 11.7158 11.7161Z" fill="#525E59"/>
</svg>
