<svg width="102" height="102" viewBox="0 0 102 102" fill="none" xmlns="http://www.w3.org/2000/svg">
<path d="M31.638 97.2659H9.16357L9.74889 85.0001L13.0026 16.7332H27.799L31.0527 85.0001L31.638 97.2659Z" fill="#EAEAF0"/>
<path d="M11.7905 16.7349H29.0057V21.8995H11.7905V16.7349Z" fill="#D8D8D8"/>
<path d="M6.45483 99.8481L7.28633 82.4177H33.5145L34.346 99.8481H6.45483Z" fill="#D8D8D8"/>
<path d="M70.8242 97.2659H48.3497L48.935 85.0001L52.1887 16.7332H66.9852L70.2388 85.0001L70.8242 97.2659Z" fill="#EAEAF0"/>
<path d="M50.9767 16.7349H68.1919V21.8995H50.9767V16.7349Z" fill="#D8D8D8"/>
<path d="M95.329 97.0506H20.3982V48.039L95.329 39.032V97.0506Z" fill="#525E59"/>
<path d="M1.50635 95.3291H100.494V100.494H1.50635V95.3291Z" fill="#627970"/>
<path d="M57.8672 78.1139H68.1963V95.3291H57.8672V78.1139Z" fill="#EAEAF0"/>
<path d="M60.4495 65.3462H65.614V70.5107H60.4495V65.3462Z" fill="#EAEAF0"/>
<path d="M76.118 65.3462H81.2826V70.5107H76.118V65.3462Z" fill="#EAEAF0"/>
<path d="M73.5356 78.1139H83.8648V95.3291H73.5356V78.1139Z" fill="#EAEAF0"/>
<path d="M28.145 5.16455C26.3767 5.16706 24.6816 5.87074 23.4313 7.12128C22.1811 8.37182 21.4779 10.0671 21.4758 11.8354C21.4758 12.2349 21.6345 12.6181 21.917 12.9006C22.1995 13.1831 22.5827 13.3418 22.9822 13.3418C23.3817 13.3418 23.7648 13.1831 24.0473 12.9006C24.3298 12.6181 24.4885 12.2349 24.4885 11.8354C24.4894 10.8655 24.8751 9.93554 25.561 9.24969C26.2468 8.56383 27.1768 8.17812 28.1467 8.17721H37.9499C38.3494 8.17721 38.7325 8.01851 39.015 7.73602C39.2975 7.45352 39.4562 7.07038 39.4562 6.67088C39.4562 6.27138 39.2975 5.88824 39.015 5.60574C38.7325 5.32325 38.3494 5.16455 37.9499 5.16455H28.145Z" fill="#051720"/>
<path d="M46.9742 5.16455H44.3059C43.9064 5.16455 43.5232 5.32325 43.2408 5.60574C42.9583 5.88824 42.7996 6.27138 42.7996 6.67088C42.7996 7.07038 42.9583 7.45352 43.2408 7.73602C43.5232 8.01851 43.9064 8.17721 44.3059 8.17721H46.9742C47.3737 8.17721 47.7569 8.01851 48.0394 7.73602C48.3219 7.45352 48.4806 7.07038 48.4806 6.67088C48.4806 6.27138 48.3219 5.88824 48.0394 5.60574C47.7569 5.32325 47.3737 5.16455 46.9742 5.16455Z" fill="#051720"/>
<path d="M38.7031 3.01266H46.9741C47.3736 3.01266 47.7568 2.85396 48.0393 2.57146C48.3218 2.28897 48.4805 1.90583 48.4805 1.50633C48.4805 1.10683 48.3218 0.723685 48.0393 0.441194C47.7568 0.158702 47.3736 0 46.9741 0H38.7031C38.3036 0 37.9205 0.158702 37.638 0.441194C37.3555 0.723685 37.1968 1.10683 37.1968 1.50633C37.1968 1.90583 37.3555 2.28897 37.638 2.57146C37.9205 2.85396 38.3036 3.01266 38.7031 3.01266Z" fill="#051720"/>
<path d="M17.8161 13.3418C18.0141 13.3421 18.2102 13.3034 18.3932 13.2278C18.5762 13.1523 18.7426 13.0414 18.8826 12.9014C19.0227 12.7615 19.1338 12.5953 19.2096 12.4124C19.2854 12.2295 19.3243 12.0334 19.3242 11.8354C19.3267 9.49656 20.2568 7.25417 21.9105 5.60017C23.5642 3.94617 25.8064 3.01562 28.1452 3.01266H32.122C32.5215 3.01266 32.9046 2.85396 33.1871 2.57146C33.4696 2.28897 33.6283 1.90583 33.6283 1.50633C33.6283 1.10683 33.4696 0.723685 33.1871 0.441194C32.9046 0.158702 32.5215 0 32.122 0H28.1452C25.0076 0.00387314 21.9997 1.25212 19.7812 3.4709C17.5627 5.68969 16.3149 8.69783 16.3115 11.8354C16.3114 12.0331 16.3502 12.2289 16.4258 12.4116C16.5013 12.5943 16.6121 12.7603 16.7519 12.9002C16.8916 13.0401 17.0575 13.1511 17.2401 13.2268C17.4227 13.3026 17.6184 13.3417 17.8161 13.3418Z" fill="#051720"/>
<path d="M67.3312 5.16455C65.5626 5.1666 63.867 5.87008 62.6164 7.12067C61.3658 8.37126 60.6623 10.0668 60.6603 11.8354C60.6603 12.2349 60.819 12.6181 61.1015 12.9006C61.384 13.1831 61.7671 13.3418 62.1666 13.3418C62.5661 13.3418 62.9492 13.1831 63.2317 12.9006C63.5142 12.6181 63.6729 12.2349 63.6729 11.8354C63.6738 10.8655 64.0596 9.93554 64.7454 9.24969C65.4313 8.56383 66.3612 8.17812 67.3312 8.17721H71.8734C72.2729 8.17721 72.656 8.01851 72.9385 7.73602C73.221 7.45352 73.3797 7.07038 73.3797 6.67088C73.3797 6.27138 73.221 5.88824 72.9385 5.60574C72.656 5.32325 72.2729 5.16455 71.8734 5.16455H67.3312Z" fill="#051720"/>
<path d="M76.7152 6.67088C76.7151 6.86873 76.754 7.06465 76.8296 7.24746C76.9053 7.43027 77.0163 7.59637 77.1561 7.73627C77.296 7.87617 77.4621 7.98712 77.645 8.06278C77.8278 8.13844 78.0237 8.17732 78.2215 8.17721H86.1603C86.5598 8.17721 86.943 8.01851 87.2255 7.73602C87.5079 7.45352 87.6667 7.07038 87.6667 6.67088C87.6667 6.27138 87.5079 5.88824 87.2255 5.60574C86.943 5.32325 86.5598 5.16455 86.1603 5.16455H78.2215C78.0237 5.16444 77.8278 5.20332 77.645 5.27898C77.4621 5.35464 77.296 5.46559 77.1561 5.60549C77.0163 5.74539 76.9053 5.91149 76.8296 6.0943C76.754 6.27711 76.7151 6.47303 76.7152 6.67088Z" fill="#051720"/>
<path d="M84.0851 3.01266H86.1604C86.5599 3.01266 86.943 2.85396 87.2255 2.57146C87.508 2.28897 87.6667 1.90583 87.6667 1.50633C87.6667 1.10683 87.508 0.723685 87.2255 0.441194C86.943 0.158702 86.5599 0 86.1604 0H84.0851C83.6856 0 83.3024 0.158702 83.0199 0.441194C82.7374 0.723685 82.5787 1.10683 82.5787 1.50633C82.5787 1.90583 82.7374 2.28897 83.0199 2.57146C83.3024 2.85396 83.6856 3.01266 84.0851 3.01266Z" fill="#051720"/>
<path d="M57.0022 13.3418C57.4017 13.3418 57.7848 13.1831 58.0673 12.9006C58.3498 12.6181 58.5085 12.2349 58.5085 11.8354C58.511 9.49626 59.4414 7.25361 61.0954 5.59956C62.7495 3.94551 64.9921 3.01516 67.3313 3.01266H75.8003C76.1998 3.01266 76.583 2.85396 76.8654 2.57146C77.1479 2.28897 77.3066 1.90583 77.3066 1.50633C77.3066 1.10683 77.1479 0.723685 76.8654 0.441194C76.583 0.158702 76.1998 0 75.8003 0H67.3313C64.1934 0.00341758 61.185 1.25146 58.9661 3.4703C56.7473 5.68913 55.4993 8.69754 55.4958 11.8354C55.4957 12.0333 55.5346 12.2292 55.6103 12.412C55.6859 12.5948 55.7969 12.7609 55.9368 12.9008C56.0767 13.0407 56.2428 13.1517 56.4256 13.2273C56.6084 13.303 56.8043 13.3419 57.0022 13.3418Z" fill="#051720"/>
<path d="M91.6709 56.582V51.4175C91.6709 51.018 91.5122 50.6348 91.2297 50.3523C90.9472 50.0698 90.564 49.9111 90.1645 49.9111C89.765 49.9111 89.3819 50.0698 89.0994 50.3523C88.8169 50.6348 88.6582 51.018 88.6582 51.4175V56.582C88.6582 56.9815 88.8169 57.3647 89.0994 57.6472C89.3819 57.9296 89.765 58.0883 90.1645 58.0883C90.564 58.0883 90.9472 57.9296 91.2297 57.6472C91.5122 57.3647 91.6709 56.9815 91.6709 56.582Z" fill="#051720"/>
<path d="M100.494 93.8228H96.8354V40.3696L100.674 39.9083C101.063 39.8522 101.415 39.646 101.654 39.3338C101.894 39.0215 102.001 38.628 101.954 38.2374C101.907 37.8467 101.71 37.49 101.403 37.2434C101.096 36.9969 100.705 36.8801 100.314 36.918L86.7714 38.5457C86.3897 38.5906 86.0395 38.7798 85.7927 39.0745C85.5459 39.3693 85.4211 39.7472 85.4438 40.1309C85.4666 40.5147 85.6352 40.8752 85.9152 41.1386C86.1951 41.4021 86.5652 41.5486 86.9496 41.548C87.0103 41.5481 87.071 41.5443 87.1312 41.5368L93.8228 40.732V93.8228H85.371V78.1139C85.371 77.7144 85.2123 77.3313 84.9298 77.0488C84.6473 76.7663 84.2642 76.6076 83.8647 76.6076H73.5355C73.3377 76.6075 73.1418 76.6464 72.959 76.722C72.7762 76.7977 72.6101 76.9087 72.4702 77.0486C72.3303 77.1885 72.2193 77.3546 72.1436 77.5374C72.068 77.7202 72.0291 77.9161 72.0292 78.1139V93.8228H69.7052V78.1139C69.7052 77.7144 69.5465 77.3313 69.264 77.0488C68.9815 76.7663 68.5983 76.6076 68.1988 76.6076H57.8697C57.6719 76.6075 57.4759 76.6464 57.2931 76.722C57.1103 76.7977 56.9442 76.9087 56.8043 77.0486C56.6644 77.1885 56.5535 77.3546 56.4778 77.5374C56.4022 77.7202 56.3633 77.9161 56.3634 78.1139V93.8228H44.0425C43.643 93.8228 43.2598 93.9815 42.9773 94.264C42.6949 94.5465 42.5362 94.9296 42.5362 95.3291C42.5362 95.7286 42.6949 96.1118 42.9773 96.3943C43.2598 96.6768 43.643 96.8355 44.0425 96.8355H98.9873V98.9874H3.01266V96.8355H26.8273C27.2268 96.8355 27.6099 96.6768 27.8924 96.3943C28.1749 96.1118 28.3336 95.7286 28.3336 95.3291C28.3336 94.9296 28.1749 94.5465 27.8924 94.264C27.6099 93.9815 27.2268 93.8228 26.8273 93.8228H21.9063V49.3758L78.4014 42.5844C78.5978 42.5608 78.7876 42.4987 78.9601 42.4017C79.1325 42.3047 79.2841 42.1747 79.4062 42.0191C79.5284 41.8635 79.6188 41.6854 79.6721 41.4949C79.7254 41.3044 79.7407 41.1053 79.7171 40.9089C79.6935 40.7125 79.6314 40.5227 79.5344 40.3503C79.4374 40.1779 79.3074 40.0262 79.1518 39.9041C78.9963 39.7819 78.8181 39.6916 78.6276 39.6382C78.4372 39.5849 78.238 39.5696 78.0416 39.5932L69.6337 40.6038L68.8074 23.2715C69.0725 23.1532 69.2977 22.9607 69.4557 22.7172C69.6138 22.4738 69.6981 22.1898 69.6983 21.8995V16.7349C69.6981 16.3355 69.5393 15.9525 69.2568 15.67C68.9744 15.3876 68.5914 15.2288 68.1919 15.2286H50.9768C50.5773 15.2286 50.1941 15.3873 49.9116 15.6698C49.6291 15.9523 49.4704 16.3354 49.4704 16.7349V21.8995C49.4699 22.191 49.5542 22.4764 49.713 22.7209C49.8718 22.9654 50.0982 23.1585 50.3648 23.2767L49.4265 43.0354L30.668 45.2906L30.2376 36.1218C30.2282 35.924 30.18 35.7299 30.0956 35.5508C30.0113 35.3716 29.8924 35.2108 29.7459 35.0776C29.5994 34.9443 29.4281 34.8413 29.2417 34.7742C29.0554 34.7072 28.8577 34.6775 28.6598 34.6869C28.462 34.6963 28.268 34.7445 28.0888 34.8289C27.9097 34.9133 27.7489 35.0321 27.6156 35.1786C27.4824 35.3251 27.3793 35.4964 27.3123 35.6828C27.2453 35.8691 27.2156 36.0669 27.225 36.2647L27.6691 45.6513L15.0538 47.1653C14.6735 47.2119 14.3252 47.4017 14.0799 47.6961C13.8346 47.9905 13.7106 48.3672 13.7333 48.7497C13.756 49.1323 13.9237 49.4917 14.2021 49.755C14.4805 50.0183 14.8488 50.1655 15.232 50.1668C15.2927 50.1668 15.3533 50.1633 15.4136 50.1565L18.8937 49.7373V80.9114H11.4524L14.1931 23.4058H26.6155L26.8824 29.0507C26.9007 29.4373 27.0673 29.8021 27.3474 30.0693C27.6276 30.3365 27.9999 30.4855 28.387 30.4855H28.4584C28.8575 30.4666 29.2328 30.2899 29.5017 29.9944C29.7706 29.6988 29.9112 29.3086 29.8925 28.9095L29.6248 23.2715C29.8896 23.153 30.1145 22.9604 30.2722 22.717C30.43 22.4735 30.514 22.1896 30.5139 21.8995V16.7349C30.5139 16.3354 30.3552 15.9523 30.0727 15.6698C29.7902 15.3873 29.4071 15.2286 29.0076 15.2286H11.7924C11.3929 15.2286 11.0098 15.3873 10.7273 15.6698C10.4448 15.9523 10.2861 16.3354 10.2861 16.7349V21.8995C10.2861 22.1915 10.371 22.4772 10.5306 22.7217C10.6902 22.9662 10.9174 23.1591 11.1847 23.2767L8.4363 80.9114H7.29063C6.90364 80.9114 6.5315 81.0603 6.25137 81.3273C5.97123 81.5943 5.8046 81.9589 5.78603 82.3454L5.23514 93.8228H1.50633C1.30848 93.8227 1.11256 93.8616 0.929748 93.9372C0.746941 94.0129 0.58084 94.1238 0.440942 94.2637C0.301043 94.4036 0.190092 94.5697 0.114432 94.7526C0.0387723 94.9354 -0.000112906 95.1313 2.46235e-07 95.3291V100.494C-0.000112906 100.692 0.0387723 100.887 0.114432 101.07C0.190092 101.253 0.301043 101.419 0.440942 101.559C0.58084 101.699 0.746941 101.81 0.929748 101.886C1.11256 101.961 1.30848 102 1.50633 102H100.494C100.692 102 100.887 101.961 101.07 101.886C101.253 101.81 101.419 101.699 101.559 101.559C101.699 101.419 101.81 101.253 101.886 101.07C101.961 100.887 102 100.692 102 100.494V95.3291C102 95.1313 101.961 94.9354 101.886 94.7526C101.81 94.5697 101.699 94.4036 101.559 94.2637C101.419 94.1238 101.253 94.0129 101.07 93.9372C100.887 93.8616 100.692 93.8227 100.494 93.8228ZM59.3735 93.8228V79.6203H66.6899V93.8228H59.3735ZM75.0393 93.8228V79.6203H82.3558V93.8228H75.0393ZM52.4831 18.2412H66.6856V20.3931H52.4831V18.2412ZM53.3748 23.4058H65.7982L66.6348 40.9653L52.4633 42.6687L53.3748 23.4058ZM13.297 18.2412H27.5013V20.3931H13.2987L13.297 18.2412ZM8.72638 83.9241H18.8937V93.8228H8.25124L8.72638 83.9241Z" fill="#051720"/>
<path d="M33.3544 93.8228C32.9548 93.8228 32.5717 93.9815 32.2892 94.2639C32.0067 94.5464 31.848 94.9296 31.848 95.3291C31.848 95.7286 32.0067 96.1117 32.2892 96.3942C32.5717 96.6767 32.9548 96.8354 33.3544 96.8354H37.5867C37.9862 96.8354 38.3694 96.6767 38.6518 96.3942C38.9343 96.1117 39.093 95.7286 39.093 95.3291C39.093 94.9296 38.9343 94.5464 38.6518 94.2639C38.3694 93.9815 37.9862 93.8228 37.5867 93.8228H33.3544Z" fill="#051720"/>
<path d="M49.4505 73.093C49.4506 72.8952 49.4117 72.6992 49.3361 72.5164C49.2604 72.3336 49.1495 72.1675 49.0096 72.0276C48.8697 71.8877 48.7036 71.7768 48.5208 71.7011C48.3379 71.6254 48.142 71.5866 47.9442 71.5867H30.729C30.3295 71.5867 29.9463 71.7454 29.6638 72.0279C29.3814 72.3104 29.2227 72.6935 29.2227 73.093C29.2227 73.4925 29.3814 73.8756 29.6638 74.1581C29.9463 74.4406 30.3295 74.5993 30.729 74.5993H47.9442C48.142 74.5994 48.3379 74.5606 48.5208 74.4849C48.7036 74.4092 48.8697 74.2983 49.0096 74.1584C49.1495 74.0185 49.2604 73.8524 49.3361 73.6696C49.4117 73.4868 49.4506 73.2908 49.4505 73.093Z" fill="#051720"/>
<path d="M47.9426 61.2577H30.7274C30.3279 61.2577 29.9448 61.4164 29.6623 61.6989C29.3798 61.9814 29.2211 62.3645 29.2211 62.764C29.2211 63.1635 29.3798 63.5467 29.6623 63.8292C29.9448 64.1116 30.3279 64.2703 30.7274 64.2703H47.9426C48.3421 64.2703 48.7252 64.1116 49.0077 63.8292C49.2902 63.5467 49.4489 63.1635 49.4489 62.764C49.4489 62.3645 49.2902 61.9814 49.0077 61.6989C48.7252 61.4164 48.3421 61.2577 47.9426 61.2577Z" fill="#051720"/>
<path d="M47.9426 66.4222H30.7274C30.3279 66.4222 29.9448 66.5809 29.6623 66.8634C29.3798 67.1459 29.2211 67.5291 29.2211 67.9286C29.2211 68.3281 29.3798 68.7112 29.6623 68.9937C29.9448 69.2762 30.3279 69.4349 30.7274 69.4349H47.9426C48.3421 69.4349 48.7252 69.2762 49.0077 68.9937C49.2902 68.7112 49.4489 68.3281 49.4489 67.9286C49.4489 67.5291 49.2902 67.1459 49.0077 66.8634C48.7252 66.5809 48.3421 66.4222 47.9426 66.4222Z" fill="#051720"/>
<path d="M60.4494 63.84C60.2516 63.8399 60.0557 63.8787 59.8729 63.9544C59.6901 64.0301 59.524 64.141 59.3841 64.2809C59.2442 64.4208 59.1332 64.5869 59.0576 64.7697C58.9819 64.9525 58.943 65.1484 58.9431 65.3463V70.5109C58.943 70.7087 58.9819 70.9046 59.0576 71.0874C59.1332 71.2702 59.2442 71.4363 59.3841 71.5762C59.524 71.7161 59.6901 71.8271 59.8729 71.9027C60.0557 71.9784 60.2516 72.0173 60.4494 72.0172H65.614C66.0135 72.0172 66.3967 71.8585 66.6791 71.576C66.9616 71.2935 67.1203 70.9104 67.1203 70.5109V65.3463C67.1203 64.9468 66.9616 64.5637 66.6791 64.2812C66.3967 63.9987 66.0135 63.84 65.614 63.84H60.4494ZM64.1077 69.0045H61.9558V66.8526H64.1077V69.0045Z" fill="#051720"/>
<path d="M76.1178 63.84C75.9199 63.8399 75.724 63.8787 75.5412 63.9544C75.3584 64.0301 75.1923 64.141 75.0524 64.2809C74.9125 64.4208 74.8015 64.5869 74.7259 64.7697C74.6502 64.9525 74.6113 65.1484 74.6115 65.3463V70.5109C74.6113 70.7087 74.6502 70.9046 74.7259 71.0874C74.8015 71.2702 74.9125 71.4363 75.0524 71.5762C75.1923 71.7161 75.3584 71.8271 75.5412 71.9027C75.724 71.9784 75.9199 72.0173 76.1178 72.0172H81.2823C81.6818 72.0172 82.065 71.8585 82.3475 71.576C82.63 71.2935 82.7887 70.9104 82.7887 70.5109V65.3463C82.7887 64.9468 82.63 64.5637 82.3475 64.2812C82.065 63.9987 81.6818 63.84 81.2823 63.84H76.1178ZM79.776 69.0045H77.6241V66.8526H79.776V69.0045Z" fill="#051720"/>
</svg>
