<svg width="119" height="94" viewBox="0 0 119 94" fill="none" xmlns="http://www.w3.org/2000/svg">
<path d="M47 94C72.9574 94 94 72.9574 94 47C94 21.0426 72.9574 0 47 0C21.0426 0 0 21.0426 0 47C0 72.9574 21.0426 94 47 94Z" fill="#525E59"/>
<path d="M47 33.5757L38.8998 27.5978L16.4353 30.8511L22.9125 37.2916L40.5816 38.026L47 33.5757Z" fill="#7B9A8D"/>
<path d="M47 33.5757L55.1002 27.5978L77.5647 30.8511L71.0875 37.2916L54.8652 38.026L47 33.5757Z" fill="#7B9A8D"/>
<path d="M22.9125 37.2916V68.8991L47 72.6151L71.0875 68.8991V37.2916H22.9125Z" fill="#7B9A8D"/>
<path d="M47.0001 33.5756L22.9126 37.2915L47.0001 41.0001L71.0876 37.2915L47.0001 33.5756Z" fill="#161515"/>
<path d="M47.0001 65.1906L22.9126 68.8991L47.0001 72.6151L71.0876 68.8991L47.0001 65.1906Z" fill="#7B9A8D"/>
<path d="M71.0875 37.2916V68.8991L47 72.6151V41.0002L71.0875 37.2916Z" fill="#7B9A8D"/>
<path d="M22.9126 37.2916V68.8991L47.0001 72.6151V41.0002L22.9126 37.2916Z" fill="#7B9A8D"/>
<path d="M71.0875 37.2916L77.5647 43.196L53.9986 47.8446L47 41.0002L71.0875 37.2916Z" fill="#7B9A8D"/>
<path d="M22.9125 37.2916L16.4353 43.196L40.0014 47.8446L47 41.0002L22.9125 37.2916Z" fill="#7B9A8D"/>
<path d="M51.9423 64.7425L50.6205 62.5614L49.2986 65.1464L50.0476 65.0362V70.8745L51.2006 70.6983V64.8526L51.9423 64.7425Z" fill="#161515"/>
<path d="M55.0634 64.2579L53.7416 62.0841L52.4197 64.6691L53.1687 64.5516V70.3972L54.3144 70.2136V64.3754L55.0634 64.2579Z" fill="#161515"/>
<path d="M59.6459 64.2579V61.8932L58.5664 62.0621L58.0156 63.1563L58.6031 63.7365L57.7953 65.3227L58.1625 64.133L57.4281 63.2958L57.9716 62.1649L56.635 62.3705V64.7352C56.635 65.7266 57.2078 66.4537 57.9495 66.4683V68.2969C57.9664 68.5351 57.9033 68.772 57.7703 68.9702C57.6373 69.1684 57.4419 69.3165 57.2152 69.3912H57.0389C56.9892 69.4061 56.9462 69.4375 56.9168 69.4802C56.8874 69.523 56.8735 69.5744 56.8773 69.6262C56.8773 69.7437 56.9508 69.8244 57.0389 69.8098L59.3155 69.4646C59.3644 69.4486 59.4068 69.4169 59.436 69.3744C59.4652 69.3319 59.4796 69.2811 59.477 69.2296C59.477 69.1121 59.4036 69.0313 59.3155 69.0387H59.1392C58.7206 69.1048 58.4049 68.7229 58.4049 68.1794V66.3802C58.7992 66.1899 59.1279 65.8863 59.349 65.5083C59.57 65.1303 59.6734 64.6949 59.6459 64.2579Z" fill="#161515"/>
<path d="M50.1211 30.9099V21.385H43.8789V30.9099H40.7137L47 38.5694L53.2862 30.9099H50.1211Z" fill="#E56353"/>
<path d="M94.7517 68.7877V65.3454C94.7517 64.7068 94.5446 64.0855 94.1618 63.5749L90.3262 58.4615V55.5111H84.4255V58.4615L80.5903 63.5749C80.2071 64.0855 80 64.7068 80 65.3454V68.7877C80 69.6023 80.6605 70.2628 81.4752 70.2628H82.9503C81.321 70.2628 80 71.5835 80 73.2132V74.6884C80 76.3177 81.321 77.6387 82.9503 77.6387C81.321 77.6387 80 78.9594 80 80.589V82.0642C80 83.6935 81.321 85.0146 82.9503 85.0146H81.4752C80.6605 85.0146 80 85.6747 80 86.4897V92.3904C80 93.2051 80.6605 93.8656 81.4752 93.8656H93.2766C94.0912 93.8656 94.7517 93.2051 94.7517 92.3904V86.4897C94.7517 85.6747 94.0912 85.0146 93.2766 85.0146H91.8014C93.4311 85.0146 94.7517 83.6935 94.7517 82.0642V80.589C94.7517 78.9594 93.4311 77.6387 91.8014 77.6387C93.4311 77.6387 94.7517 76.3177 94.7517 74.6884V73.2132C94.7517 71.5835 93.4311 70.2628 91.8014 70.2628H93.2766C94.0912 70.2628 94.7517 69.6023 94.7517 68.7877Z" fill="#525E59"/>
<path d="M82.2128 65.3454V68.7877C82.2153 69.6012 82.8744 70.2603 83.6879 70.2628H85.1631C83.5338 70.2628 82.2128 71.5835 82.2128 73.2132V74.6884C82.2128 76.3177 83.5338 77.6387 85.1631 77.6387C83.5338 77.6387 82.2128 78.9594 82.2128 80.589V82.0642C82.2128 83.6935 83.5338 85.0146 85.1631 85.0146H83.6879C82.8744 85.0167 82.2153 85.6758 82.2128 86.4897V93.8656H81.4752C80.6605 93.8656 80 93.2051 80 92.3904V86.4897C80.0025 85.6758 80.6616 85.0167 81.4752 85.0146H82.9503C81.321 85.0146 80 83.6935 80 82.0642V80.589C80 78.9594 81.321 77.6387 82.9503 77.6387C81.321 77.6387 80 76.3177 80 74.6884V73.2132C80 71.5835 81.321 70.2628 82.9503 70.2628H81.4752C80.6616 70.2603 80.0025 69.6012 80 68.7877V65.3454C80 64.7068 80.2071 64.0855 80.5903 63.5749L84.4255 58.4615V55.5111H86.6383V58.4615L82.803 63.5749C82.4198 64.0855 82.2128 64.7068 82.2128 65.3454Z" fill="#7B9A8D"/>
<path d="M91.8014 55.511V52.5606C91.8014 51.7456 91.1408 51.0854 90.3262 51.0854H84.4255C83.6108 51.0854 82.9503 51.7456 82.9503 52.5606V55.511H91.8014Z" fill="#161515"/>
<path d="M105.673 52.0935C105.462 51.307 104.654 50.8399 103.867 51.0506L98.1674 52.5776C97.3801 52.7879 96.913 53.5972 97.1241 54.3845L97.8879 57.2347L106.438 54.9438L105.673 52.0935Z" fill="#161515"/>
<path d="M117.601 90.8979L106.2 93.9487C105.413 94.1594 104.605 93.693 104.394 92.9065L103.057 87.9206C102.846 87.1343 103.311 86.3255 104.097 86.1133L105.521 85.7298C104.766 85.934 103.962 85.8295 103.285 85.4391C102.608 85.0487 102.115 84.4048 101.914 83.6499L101.53 82.219C101.108 80.6445 102.043 79.0259 103.618 78.6046C102.862 78.8099 102.057 78.7058 101.378 78.3157C100.7 77.9253 100.205 77.2807 100.003 76.5247L99.6199 75.0938C99.4171 74.3386 99.5234 73.534 99.9148 72.8573C100.307 72.1806 100.951 71.6875 101.707 71.4869L100.284 71.8633C99.9062 71.967 99.5025 71.9159 99.1632 71.7203C98.8236 71.5251 98.5765 71.2021 98.4768 70.8232L97.5818 67.4976C97.4161 66.8795 97.455 66.2244 97.6934 65.6305L100.077 59.7003L99.3102 56.8533L105.012 55.3267L105.779 58.1736L110.806 62.1263C111.306 62.5188 111.665 63.062 111.831 63.6753L112.727 67.0023C112.828 67.3812 112.774 67.7842 112.578 68.1235C112.381 68.4624 112.058 68.7091 111.679 68.8096L110.256 69.1931C111.83 68.771 113.449 69.7056 113.87 71.2806L114.253 72.7039C114.673 74.2781 113.739 75.8944 112.166 76.3183C113.741 75.8962 115.359 76.8308 115.781 78.4058L116.157 79.8291C116.361 80.5843 116.256 81.3896 115.866 82.0674C115.476 82.7456 114.832 83.2404 114.077 83.4432L115.5 83.0596C116.286 82.8507 117.093 83.3153 117.307 84.0997L118.644 89.0918C118.854 89.8787 118.388 90.6872 117.601 90.8979Z" fill="#525E59"/>
<path d="M105.27 87.1829C105.059 86.3967 105.524 85.5878 106.31 85.3756L107.733 84.9921C106.979 85.1963 106.175 85.0918 105.498 84.7014C104.821 84.311 104.327 83.6671 104.126 82.9122L103.743 81.4813C103.321 79.9068 104.256 78.2882 105.83 77.8669C105.075 78.0722 104.269 77.9681 103.591 77.578C102.913 77.1876 102.418 76.543 102.216 75.787L101.833 74.3561C101.63 73.6009 101.736 72.7963 102.128 72.1196C102.519 71.4429 103.164 70.9498 103.92 70.7492L102.496 71.1256C102.119 71.2293 101.715 71.1782 101.376 70.9826C101.036 70.7874 100.789 70.4644 100.69 70.0855L99.7946 66.7599C99.6289 66.1418 99.6678 65.4867 99.9062 64.8928L102.29 58.9626L101.56 56.2485L99.3102 56.8532L100.077 59.7002L97.6934 65.6304C97.455 66.2243 97.4161 66.8794 97.5818 67.4974L98.4768 70.8231C98.5765 71.2019 98.8236 71.525 99.1632 71.7202C99.5025 71.9158 99.9062 71.9669 100.284 71.8632L101.707 71.4868C100.951 71.6874 100.307 72.1805 99.9148 72.8572C99.5234 73.5339 99.4171 74.3385 99.6199 75.0937L100.003 76.5246C100.205 77.2806 100.7 77.9252 101.378 78.3156C102.057 78.7057 102.862 78.8097 103.618 78.6045C102.043 79.0258 101.108 80.6443 101.53 82.2189L101.914 83.6498C102.115 84.4047 102.608 85.0486 103.285 85.439C103.962 85.8294 104.766 85.9339 105.521 85.7297L104.097 86.1132C103.311 86.3253 102.846 87.1342 103.057 87.9205L104.394 92.9064C104.604 93.6933 105.413 94.16 106.2 93.9494L107.033 93.7282L106.989 93.5946L105.27 87.1829Z" fill="#7B9A8D"/>
</svg>
