<svg width="87" height="86" viewBox="0 0 87 86" fill="none" xmlns="http://www.w3.org/2000/svg">
<path d="M21.5769 72.3568C14.3509 72.3568 6.67114 74.7477 6.67114 79.1784C6.67114 83.6091 14.351 86.0001 21.5769 86.0001C28.8028 86.0001 36.4826 83.6091 36.4826 79.1784C36.4826 74.7477 28.8028 72.3568 21.5769 72.3568Z" fill="#525E59"/>
<path d="M21.5775 25.8507C9.95064 25.8507 0.491455 35.3099 0.491455 46.9367C0.491455 54.1555 3.92542 61.9171 10.6981 70.0058C15.6844 75.9611 20.5987 79.7881 20.8056 79.9482C21.0327 80.1241 21.3052 80.2119 21.5775 80.2119C21.8497 80.2119 22.122 80.1241 22.3493 79.9482C22.5561 79.7881 27.4707 75.9611 32.4568 70.0058C39.2295 61.9171 42.6635 54.1554 42.6635 46.9367C42.6635 35.3099 33.2043 25.8507 21.5775 25.8507ZM29.4846 46.9367C29.4846 51.3036 25.9445 54.8437 21.5775 54.8437C17.2106 54.8437 13.6705 51.3036 13.6705 46.9367C13.6705 42.5699 17.2106 39.0296 21.5775 39.0296C25.9445 39.0296 29.4846 42.5699 29.4846 46.9367Z" fill="#525E59"/>
<path d="M77.8066 37.0881C75.6784 36.2209 72.8757 35.7432 69.9153 35.7432C66.955 35.7432 64.1522 36.2209 62.0239 37.0881C59.5368 38.1016 58.167 39.5897 58.167 41.2779C58.167 42.9662 59.5366 44.4544 62.0239 45.4677C64.1521 46.335 66.9546 46.8127 69.9153 46.8127C72.8757 46.8127 75.6783 46.335 77.8066 45.4677C80.2936 44.4544 81.6632 42.9662 81.6632 41.2779C81.6632 39.5897 80.2936 38.1018 77.8066 37.0881Z" fill="#525E59"/>
<path d="M21.5771 82.8499C15.2605 82.8499 8.59732 81.0229 7.02026 77.603C6.79333 78.0952 6.67139 78.6204 6.67139 79.1781C6.67139 83.6089 14.3513 85.9998 21.5771 85.9998C28.803 85.9998 36.4829 83.6088 36.4829 79.1781C36.4829 78.6206 36.3609 78.0953 36.134 77.603C34.5571 81.0227 27.894 82.8499 21.5771 82.8499Z" fill="#749A8A"/>
<path d="M77.8065 42.3172C75.6783 43.1844 72.8757 43.6621 69.9151 43.6621C66.9546 43.6621 64.1521 43.1844 62.0237 42.3172C60.3462 41.6337 59.1795 40.7336 58.5962 39.7024C58.3146 40.2001 58.167 40.7277 58.167 41.2774C58.167 42.9657 59.5366 44.4539 62.0239 45.4673C64.1521 46.3345 66.9546 46.8122 69.9153 46.8122C72.8757 46.8122 75.6783 46.3345 77.8066 45.4673C80.2936 44.4539 81.6632 42.9657 81.6632 41.2774C81.6632 40.728 81.5156 40.2001 81.234 39.7024C80.6507 40.7336 79.4838 41.6337 77.8065 42.3172Z" fill="#749A8A"/>
<path d="M69.9154 0C60.8184 0 53.4175 7.40106 53.4175 16.4979C53.4175 22.1165 56.0798 28.1447 61.3302 34.4157C65.1825 39.0167 68.9839 41.9768 69.1438 42.1006C69.371 42.2765 69.6433 42.3643 69.9156 42.3643C70.1879 42.3643 70.46 42.2765 70.6874 42.1006C70.8473 41.9768 74.6488 39.0167 78.501 34.4157C83.7514 28.1449 86.4135 22.1167 86.4135 16.4979C86.4132 7.40106 79.0123 0 69.9154 0ZM75.9927 16.4979C75.9927 19.8543 73.2718 22.5752 69.9154 22.5752C66.5591 22.5752 63.8381 19.8543 63.8381 16.4979C63.8381 13.1416 66.5591 10.4208 69.9154 10.4208C73.2718 10.4208 75.9927 13.1416 75.9927 16.4979Z" fill="#525E59"/>
<path d="M21.5774 25.8508C20.7743 25.8508 19.9822 25.8975 19.2023 25.9854C29.715 27.1692 37.9131 36.1129 37.9131 46.9368C37.9131 54.1557 34.4791 61.9172 27.7064 70.0059C24.3803 73.9784 21.0884 77.0015 19.2021 78.6234C20.1438 79.433 20.7367 79.8949 20.8056 79.9482C21.0327 80.124 21.3051 80.2119 21.5774 80.2119C21.8497 80.2119 22.122 80.124 22.3492 79.9482C22.556 79.7881 27.4706 75.9611 32.4568 70.0057C39.2295 61.917 42.6634 54.1553 42.6634 46.9367C42.6634 35.31 33.2042 25.8508 21.5774 25.8508Z" fill="#62796F"/>
<path d="M69.9153 0C69.1089 0 68.3159 0.0591251 67.54 0.171664C75.5154 1.32662 81.6629 8.20748 81.6629 16.4979C81.6629 22.1165 79.0006 28.1447 73.7504 34.4157C71.3827 37.2436 69.0358 39.4499 67.54 40.7606C68.4778 41.5823 69.0818 42.0529 69.1435 42.1005C69.3707 42.2763 69.643 42.3642 69.9153 42.3642C70.1876 42.3642 70.4597 42.2763 70.6871 42.1005C70.847 41.9767 74.6485 39.0165 78.5007 34.4155C83.7511 28.1447 86.4132 22.1165 86.4132 16.4978C86.4131 7.40106 79.0122 0 69.9153 0Z" fill="#62796F"/>
<path d="M41.1389 80.4407C40.4452 80.4407 39.8811 79.88 39.8779 79.1853C39.8748 78.4887 40.4368 77.9215 41.1333 77.9185L42.7989 77.9109C42.8009 77.9109 42.8028 77.9109 42.8048 77.9109C43.4985 77.9109 44.0627 78.4716 44.0658 79.1663C44.0689 79.8629 43.5069 80.4301 42.8104 80.4331L41.1448 80.4407C41.1428 80.4407 41.1407 80.4407 41.1389 80.4407ZM47.8014 80.4104C47.1077 80.4104 46.5436 79.8498 46.5404 79.155C46.5373 78.4585 47.0993 77.8912 47.7958 77.8882L49.4614 77.8807C49.4634 77.8807 49.4653 77.8807 49.4673 77.8807C50.161 77.8807 50.7251 78.4413 50.7283 79.1361C50.7314 79.8326 50.1694 80.3999 49.4728 80.4029L47.8073 80.4104C47.8052 80.4104 47.8032 80.4104 47.8014 80.4104ZM54.4641 80.38C53.7703 80.38 53.2063 79.8194 53.2031 79.1246C53.1999 78.4282 53.7619 77.8608 54.4585 77.8578L56.1239 77.8503C56.1259 77.8503 56.1278 77.8503 56.1298 77.8503C56.8235 77.8503 57.3876 78.4109 57.3907 79.1057C57.3938 79.8022 56.8319 80.3695 56.1353 80.3725L54.4699 80.38C54.4679 80.38 54.4659 80.38 54.4641 80.38ZM61.1267 80.3498C60.433 80.3498 59.869 79.7891 59.8658 79.0944C59.8626 78.398 60.4246 77.8306 61.1212 77.8276L62.7868 77.82C62.7888 77.82 62.7906 77.82 62.7926 77.82C63.4863 77.82 64.0504 78.3807 64.0536 79.0754C64.0566 79.7718 63.4947 80.3392 62.7982 80.3423L61.1326 80.3498C61.1306 80.3498 61.1286 80.3498 61.1267 80.3498ZM67.7892 80.3197C67.0955 80.3197 66.5315 79.7591 66.5283 79.0643C66.5251 78.3678 67.0871 77.8005 67.7837 77.7975L69.4493 77.79C69.4513 77.79 69.4531 77.79 69.4551 77.79C70.1488 77.79 70.7129 78.3506 70.7161 79.0454C70.7193 79.7419 70.1572 80.3092 69.4607 80.3122L67.7951 80.3197C67.7931 80.3197 67.7912 80.3197 67.7892 80.3197ZM74.4519 80.2895C73.7583 80.2895 73.1943 79.729 73.1909 79.0344C73.1874 78.338 73.7493 77.7706 74.446 77.7673L74.682 77.7661C75.1039 77.7643 75.5267 77.7344 75.9398 77.6773C76.6284 77.5812 77.266 78.0639 77.3616 78.7539C77.4569 79.4438 76.9749 80.0804 76.2849 80.1758C75.7617 80.248 75.2262 80.286 74.6936 80.2883L74.4581 80.2895C74.4561 80.2895 74.4539 80.2895 74.4519 80.2895ZM80.7257 78.3896C80.3261 78.3896 79.933 78.2001 79.6882 77.8469C79.2916 77.2745 79.4337 76.4889 80.0061 76.0918C80.4079 75.8135 80.7907 75.5012 81.1446 75.1641C81.6485 74.6835 82.4469 74.7029 82.9276 75.2071C83.408 75.7112 83.3889 76.5095 82.8846 76.9901C82.4366 77.4171 81.9517 77.8121 81.4434 78.1645C81.2239 78.3167 80.9736 78.3896 80.7257 78.3896ZM84.714 73.1893C84.5734 73.1893 84.4303 73.1656 84.2903 73.1157C83.6343 72.8817 83.2923 72.1603 83.5259 71.5044C83.6898 71.045 83.8185 70.5688 83.9089 70.0887C84.0379 69.4043 84.698 68.9541 85.3815 69.0829C86.0658 69.2118 86.5163 69.8712 86.3873 70.5555C86.2725 71.1644 86.1093 71.7688 85.9013 72.3515C85.7177 72.8675 85.232 73.1893 84.714 73.1893ZM84.918 66.6385C84.37 66.6385 83.8652 66.2782 83.7066 65.7249C83.5721 65.2563 83.3991 64.794 83.1925 64.3514C82.898 63.7202 83.171 62.9697 83.8021 62.6753C84.434 62.381 85.1838 62.6538 85.4782 63.2848C85.7406 63.8468 85.96 64.4336 86.1309 65.029C86.3229 65.6984 85.9363 66.3969 85.2667 66.5891C85.1503 66.6225 85.0333 66.6385 84.918 66.6385ZM81.2605 61.1981C80.9867 61.1981 80.7114 61.1096 80.4798 60.9269C80.0963 60.6238 79.686 60.3491 79.261 60.1095C78.6541 59.7679 78.4393 58.9986 78.7811 58.3919C79.1229 57.785 79.8924 57.57 80.4988 57.912C81.0373 58.2153 81.5568 58.5635 82.0427 58.947C82.5893 59.3785 82.6827 60.1717 82.251 60.7182C82.0023 61.0337 81.6332 61.1981 81.2605 61.1981ZM75.1216 58.9124C75.1028 58.9124 75.0838 58.9121 75.0648 58.9111C74.9239 58.9049 74.7819 58.9017 74.6395 58.9017H73.4552C72.7586 58.9017 72.194 58.3373 72.194 57.6405C72.194 56.9441 72.7584 56.3794 73.4552 56.3794H74.6395C74.8174 56.3794 74.9979 56.3833 75.1763 56.3914C75.8721 56.4221 76.4112 57.0112 76.3802 57.7069C76.3506 58.384 75.7923 58.9124 75.1216 58.9124ZM68.4582 58.9018H66.7927C66.0961 58.9018 65.5315 58.3375 65.5315 57.6407C65.5315 56.9443 66.0961 56.3796 66.7927 56.3796H68.4582C69.1548 56.3796 69.7193 56.9443 69.7193 57.6407C69.7193 58.3373 69.1548 58.9018 68.4582 58.9018ZM61.7956 58.9018H60.13C59.4334 58.9018 58.8689 58.3375 58.8689 57.6407C58.8689 56.9443 59.4334 56.3796 60.13 56.3796H61.7956C62.4921 56.3796 63.0567 56.9443 63.0567 57.6407C63.0567 58.3373 62.4921 58.9018 61.7956 58.9018ZM55.1327 58.9018H53.4672C52.7706 58.9018 52.206 58.3375 52.206 57.6407C52.206 56.9443 52.7706 56.3796 53.4672 56.3796H55.1327C55.8293 56.3796 56.3938 56.9443 56.3938 57.6407C56.3938 58.3373 55.8295 58.9018 55.1327 58.9018ZM48.7081 57.6474C48.4781 57.6474 48.2453 57.5846 48.0365 57.4529C47.4958 57.1119 46.9879 56.7137 46.5263 56.2701C46.0244 55.7873 46.0088 54.989 46.4917 54.4871C46.9741 53.9855 47.7727 53.9696 48.2747 54.4525C48.6132 54.7779 48.9857 55.0699 49.3821 55.3197C49.9714 55.6913 50.1477 56.4701 49.776 57.0592C49.536 57.4392 49.1265 57.6474 48.7081 57.6474ZM45.0428 52.305C44.4512 52.305 43.9236 51.8871 43.8062 51.2851C43.6907 50.6918 43.6321 50.0824 43.6321 49.4734L43.6326 49.3739C43.6406 48.6826 44.2037 48.1274 44.8933 48.1274C44.8984 48.1274 44.9034 48.1274 44.9083 48.1276C45.6049 48.1357 46.1628 48.7068 46.1546 49.4032L46.1543 49.4732C46.1543 49.9207 46.1973 50.368 46.2819 50.8025C46.4151 51.4862 45.969 52.1483 45.2854 52.2815C45.2039 52.2974 45.1226 52.305 45.0428 52.305ZM46.421 45.9758C46.166 45.9758 45.909 45.8988 45.6863 45.7389C45.1206 45.3326 44.9914 44.5447 45.3976 43.9789C45.7708 43.4592 46.1985 42.976 46.6686 42.5425C47.1809 42.0703 47.9784 42.1027 48.4506 42.6144C48.9229 43.1263 48.8907 43.9242 48.3787 44.3963C48.0339 44.7145 47.7201 45.0691 47.4463 45.4504C47.1999 45.7932 46.8134 45.9758 46.421 45.9758ZM51.9727 42.6385C51.3502 42.6385 50.8087 42.1776 50.7242 41.5436C50.6323 40.8532 51.1176 40.219 51.808 40.1271C52.2201 40.0723 52.6414 40.0444 53.0607 40.0444H53.6365C54.333 40.0444 54.8976 40.609 54.8976 41.3055C54.8976 42.0021 54.333 42.5667 53.6365 42.5667H53.0607C52.7523 42.5667 52.4427 42.587 52.1405 42.6271C52.0841 42.635 52.0282 42.6385 51.9727 42.6385Z" fill="#525E59"/>
</svg>
