<svg width="14" height="16" viewBox="0 0 14 16" fill="none" xmlns="http://www.w3.org/2000/svg">
<path d="M8.74341 12.0666C10.0503 9.89892 11.7022 6.85154 11.7022 5.28513C11.7022 2.64281 9.55351 0.494141 6.91118 0.494141C4.26886 0.494141 2.12019 2.64281 2.12019 5.28513C2.12019 6.85154 3.77204 9.89892 5.07896 12.0666C3.52837 12.1837 0 12.6045 0 14.0001C0 15.3734 3.58217 16 6.91435 16C10.2434 16 13.8287 15.3734 13.8287 14.0001C13.8255 12.6045 10.294 12.1837 8.74341 12.0666ZM2.78156 5.28513C2.78156 3.00672 4.63594 1.15235 6.91118 1.15235C9.1896 1.15235 11.044 3.00672 11.044 5.28513C11.044 7.27558 7.87318 12.2691 6.91118 13.7374C5.94919 12.2691 2.78156 7.27558 2.78156 5.28513ZM6.91118 15.3386C2.86384 15.3386 0.658208 14.4526 0.658208 13.9969C0.658208 13.6456 2.11386 12.8893 5.46819 12.6963C6.09792 13.7121 6.57575 14.4304 6.63904 14.5159C6.72448 14.6298 6.97447 14.7659 7.18649 14.5159C7.25295 14.4368 7.72761 13.7121 8.35734 12.6963C11.7117 12.8893 13.1673 13.6425 13.1673 13.9969C13.1642 14.4557 10.9585 15.3386 6.91118 15.3386Z" fill="#525E59"/>
<path d="M8.99644 5.28509C8.99644 4.13322 8.06293 3.19971 6.91106 3.19971C5.7592 3.19971 4.82568 4.13322 4.82568 5.28509C4.82568 6.43695 5.7592 7.37047 6.91106 7.37047C8.06293 7.37047 8.99644 6.43695 8.99644 5.28509ZM5.48389 5.28509C5.48389 4.49714 6.12311 3.85791 6.91106 3.85791C7.69901 3.85791 8.33824 4.49714 8.33824 5.28509C8.33824 6.07304 7.69901 6.71226 6.91106 6.71226C6.12311 6.71226 5.48389 6.07304 5.48389 5.28509Z" fill="#525E59"/>
</svg>
