<svg width="25" height="18" viewBox="0 0 25 18" fill="none" xmlns="http://www.w3.org/2000/svg">
<path d="M21.6916 0H3.81885C2.22341 0 0.926514 1.2969 0.926514 2.89233V15.1077C0.926514 16.7031 2.22341 18 3.81885 18H21.6867C23.2821 18 24.579 16.7031 24.579 15.1077V2.89723C24.5839 1.30179 23.287 0 21.6916 0ZM23.2626 15.1077C23.2626 15.9739 22.5578 16.6786 21.6916 16.6786H3.81885C2.95261 16.6786 2.24788 15.9739 2.24788 15.1077V2.89723C2.24788 2.03099 2.95261 1.32626 3.81885 1.32626H21.6867C22.5529 1.32626 23.2577 2.03099 23.2577 2.89723V15.1077H23.2626Z" fill="white"/>
<path d="M15.8442 8.84845L21.6289 3.66085C21.8981 3.41615 21.9226 3.00016 21.6779 2.7261C21.4332 2.45693 21.0172 2.43246 20.7431 2.67716L12.7659 9.83703L11.2097 8.44714C11.2048 8.44225 11.1999 8.43736 11.1999 8.43246C11.1656 8.3982 11.1314 8.36884 11.0922 8.33948L4.75942 2.67227C4.48536 2.42757 4.06937 2.45204 3.82467 2.7261C3.57997 3.00016 3.60444 3.41615 3.8785 3.66085L9.73168 8.89249L3.90297 14.3493C3.6387 14.5989 3.62402 15.0148 3.87361 15.284C4.00575 15.421 4.18193 15.4945 4.35811 15.4945C4.51961 15.4945 4.68111 15.4357 4.80836 15.3183L10.7252 9.7832L12.3304 11.2171C12.4576 11.3297 12.6142 11.3835 12.7708 11.3835C12.9274 11.3835 13.0889 11.3248 13.2113 11.2122L14.8606 9.73426L20.7431 15.3232C20.8703 15.4455 21.0367 15.5042 21.1982 15.5042C21.3744 15.5042 21.5457 15.4357 21.6779 15.2987C21.9274 15.0344 21.9177 14.6135 21.6534 14.3639L15.8442 8.84845Z" fill="white"/>
</svg>
