<svg width="54" height="36" viewBox="0 0 54 36" fill="none" xmlns="http://www.w3.org/2000/svg">
<path d="M36.6201 0H17.7629V36H36.6201V0Z" fill="#EBF7F7"/>
<path d="M17.762 0H5.762C2.93343 0 0.619141 2.05714 0.619141 4.97143V31.0286C0.619141 33.9429 2.93343 36 5.762 36H17.762V0Z" fill="#589F58"/>
<path d="M48.6191 0H36.6191V36H48.6191C51.4477 36 53.762 33.9429 53.762 31.0286V4.97143C53.762 2.05714 51.4477 0 48.6191 0Z" fill="#589F58"/>
<path d="M48.6201 0H36.6201V25.8L48.4487 36C51.2773 36 53.763 33.9429 53.763 31.0286V4.97143C53.763 2.05714 51.4487 0 48.6201 0Z" fill="#479347"/>
<path d="M36.6201 25.8V0H17.7629V10.2L36.6201 25.8Z" fill="#E2F2F1"/>
<path d="M17.7632 0H5.76318L17.7632 10.2V0Z" fill="#479347"/>
<path d="M36.6201 35.9999H48.6201C51.4487 35.9999 53.763 34.2856 53.763 30.8571H36.6201V35.9999Z" fill="#398439"/>
<path d="M36.6201 30.8571H17.7629V35.9999H36.6201V30.8571Z" fill="#D6EAE8"/>
<path d="M0.619141 30.8571C0.619141 34.2856 2.93343 35.9999 5.762 35.9999H17.762V30.8571H0.619141Z" fill="#398439"/>
<path d="M48.6191 0H36.6191V9.08571L53.762 14.4V4.97143C53.762 2.05714 51.4477 0 48.6191 0Z" fill="#398439"/>
<path d="M36.6201 9.08571V0H17.7629V3.51429L36.6201 9.08571Z" fill="#D6EAE8"/>
<path d="M17.7632 0H5.76318L17.7632 3.51429V0Z" fill="#398439"/>
</svg>
