<svg width="18" height="17" viewBox="0 0 18 17" fill="none" xmlns="http://www.w3.org/2000/svg">
<path d="M17.1351 0H4.63475C4.21479 0.000489462 3.87447 0.340805 3.87398 0.760764V4.20867L3.30236 3.35124C3.04071 2.95656 2.5145 2.83815 2.10902 3.08274L0.932981 3.7898C0.547844 4.01579 0.265319 4.38226 0.144772 4.81221C-0.284241 6.37433 0.034084 9.06564 3.98439 13.0165C7.12586 16.1548 9.46811 17 11.0824 17C11.4562 17.0017 11.8285 16.9531 12.1893 16.8556C12.6191 16.735 12.9855 16.4529 13.212 16.0683L13.9181 14.891C14.1617 14.4858 14.0434 13.9607 13.6496 13.6991L10.8336 11.822C10.4473 11.5665 9.92954 11.6505 9.64383 12.015L8.82398 13.069C8.73829 13.1818 8.58285 13.2147 8.45881 13.1463L8.30277 13.0603C7.78933 12.7805 7.1503 12.4321 5.85969 11.1414C5.72006 11.0018 5.59357 10.8712 5.47484 10.7461H17.1351C17.554 10.7465 17.8942 10.4078 17.8959 9.98894V0.760764C17.8954 0.340805 17.5551 0.000489462 17.1351 0ZM8.01728 13.5843L8.16884 13.6675C8.54981 13.8805 9.02938 13.7817 9.29505 13.4354L10.1149 12.3814C10.2081 12.2627 10.3768 12.2353 10.5027 12.3184L13.3187 14.1956C13.4467 14.2809 13.4851 14.4515 13.4061 14.5834L12.7 15.7607C12.5525 16.0136 12.3129 16.1995 12.0314 16.2798C10.6212 16.6676 8.15303 16.3395 4.40708 12.5932C0.66112 8.84699 0.334194 6.37909 0.721113 4.97003C0.80128 4.68856 0.987171 4.449 1.23991 4.30146L2.41717 3.59499C2.54908 3.51619 2.71966 3.55461 2.805 3.6824L4.68303 6.49841C4.76631 6.62434 4.73893 6.79314 4.62006 6.88624L3.56573 7.70637C3.2195 7.97197 3.12063 8.45143 3.33362 8.8323L3.41714 8.98386C3.71547 9.53101 4.0863 10.2118 5.43809 11.5633C6.78992 12.9148 7.47044 13.2859 8.01728 13.5843ZM17.2992 9.98897C17.2982 10.0787 17.2249 10.1507 17.1351 10.1501H4.93664C4.54916 9.70697 4.21503 9.21996 3.94107 8.69896L3.85514 8.54233C3.78661 8.41857 3.81941 8.26327 3.93212 8.17776L4.98646 7.35763C5.35111 7.07199 5.43512 6.55414 5.17948 6.16785L4.47064 5.10397V0.760764C4.47015 0.717097 4.48728 0.675073 4.51815 0.644202C4.54902 0.613331 4.59104 0.5962 4.63471 0.596689H17.1351C17.1788 0.5962 17.2208 0.613331 17.2517 0.644202C17.2825 0.675073 17.2997 0.717097 17.2992 0.760764V9.98897H17.2992Z" fill="#161515"/>
<path d="M16.108 1.38147L11.1218 5.16291C10.9808 5.26542 10.7897 5.26542 10.6487 5.16291L5.66438 1.38147C5.53307 1.28186 5.34585 1.3076 5.24628 1.43891C5.14667 1.57023 5.1724 1.75745 5.30372 1.85702L10.2886 5.63815C10.6433 5.90015 11.1273 5.90015 11.482 5.63815L16.4684 1.85702C16.5315 1.80919 16.573 1.73822 16.5838 1.65976C16.5945 1.58131 16.5736 1.50181 16.5257 1.43877C16.4261 1.3077 16.2392 1.28207 16.108 1.38147Z" fill="#161515"/>
<path d="M8.33955 5.66238L5.28338 8.93517C5.17102 9.05568 5.17762 9.24451 5.29814 9.35688C5.41865 9.46924 5.60748 9.46263 5.71984 9.34212L8.77604 6.06787C8.87701 5.94606 8.8653 5.7666 8.7494 5.65889C8.63347 5.55117 8.45363 5.55271 8.33955 5.66238Z" fill="#161515"/>
<path d="M13.4514 5.66253C13.3391 5.54202 13.1503 5.53538 13.0297 5.64778C12.9092 5.76014 12.9026 5.94894 13.015 6.06948L16.0703 9.34227C16.1826 9.46278 16.3714 9.46943 16.492 9.35702C16.6125 9.24466 16.6191 9.05586 16.5067 8.93532L13.4514 5.66253Z" fill="#161515"/>
</svg>
