<svg width="21" height="20" viewBox="0 0 21 20" fill="none" xmlns="http://www.w3.org/2000/svg">
<path d="M15.8915 12.3894C15.4821 11.963 14.9882 11.7351 14.4648 11.7351C13.9456 11.7351 13.4475 11.9588 13.0212 12.3851L11.6873 13.7148C11.5775 13.6557 11.4678 13.6008 11.3623 13.5459C11.2103 13.47 11.0668 13.3982 10.9444 13.3222C9.69492 12.5286 8.55944 11.4945 7.47039 10.1564C6.94276 9.48945 6.58818 8.92804 6.33069 8.35819C6.67683 8.04161 6.99763 7.71236 7.30999 7.39578C7.42818 7.27759 7.54637 7.15518 7.66457 7.03699C8.551 6.15055 8.551 5.00241 7.66457 4.11598L6.5122 2.96362C6.38135 2.83276 6.24627 2.69769 6.11964 2.56261C5.86637 2.3009 5.60044 2.03075 5.32607 1.77749C4.91662 1.37226 4.42697 1.15698 3.912 1.15698C3.39702 1.15698 2.89893 1.37226 2.47682 1.77749C2.4726 1.78171 2.4726 1.78171 2.46838 1.78593L1.0332 3.23377C0.492901 3.77407 0.18476 4.43256 0.117223 5.19658C0.0159161 6.42915 0.378931 7.57729 0.657525 8.32864C1.34134 10.1733 2.36285 11.8828 3.88667 13.7148C5.73552 15.9224 7.96004 17.6657 10.5012 18.8941C11.472 19.3542 12.7679 19.8987 14.2157 19.9916C14.3044 19.9958 14.3972 20 14.4817 20C15.4567 20 16.2756 19.6497 16.9172 18.9532C16.9215 18.9447 16.9299 18.9405 16.9341 18.9321C17.1536 18.6661 17.4069 18.4255 17.6728 18.168C17.8543 17.995 18.0401 17.8135 18.2216 17.6235C18.6394 17.1888 18.8589 16.6822 18.8589 16.163C18.8589 15.6396 18.6352 15.1373 18.2089 14.7152L15.8915 12.3894ZM17.4027 16.8342C17.3984 16.8342 17.3984 16.8384 17.4027 16.8342C17.238 17.0115 17.0692 17.1719 16.8877 17.3492C16.6133 17.6109 16.3347 17.8852 16.073 18.1934C15.6467 18.6493 15.1444 18.8645 14.4859 18.8645C14.4226 18.8645 14.355 18.8645 14.2917 18.8603C13.038 18.7801 11.873 18.2905 10.9992 17.8726C8.61009 16.716 6.5122 15.074 4.76888 12.993C3.32949 11.2581 2.36707 9.65407 1.72969 7.93186C1.33712 6.88081 1.19361 6.06191 1.25692 5.28945C1.29913 4.79558 1.48908 4.38613 1.83944 4.03578L3.27883 2.59638C3.48567 2.40221 3.70517 2.29668 3.92044 2.29668C4.18637 2.29668 4.40165 2.45708 4.53672 2.59216C4.54094 2.59638 4.54517 2.6006 4.54939 2.60482C4.80687 2.84543 5.0517 3.09447 5.30919 3.3604C5.44004 3.49548 5.57512 3.63055 5.71019 3.76985L6.86255 4.92221C7.30999 5.36965 7.30999 5.78332 6.86255 6.23075C6.74014 6.35317 6.62195 6.47558 6.49954 6.59377C6.14497 6.95678 5.80728 7.29447 5.44004 7.62372C5.4316 7.63216 5.42316 7.63638 5.41894 7.64483C5.05592 8.00784 5.12346 8.36241 5.19944 8.60302C5.20366 8.61568 5.20788 8.62834 5.2121 8.64101C5.5118 9.36704 5.93391 10.0509 6.57552 10.8655L6.57974 10.8698C7.74477 12.3049 8.97311 13.4235 10.3281 14.2804C10.5012 14.3902 10.6784 14.4788 10.8473 14.5632C10.9992 14.6392 11.1428 14.711 11.2652 14.7869C11.2821 14.7954 11.2989 14.808 11.3158 14.8165C11.4593 14.8882 11.5944 14.922 11.7337 14.922C12.0841 14.922 12.3036 14.7025 12.3753 14.6308L13.8189 13.1871C13.9625 13.0436 14.1904 12.8706 14.4563 12.8706C14.718 12.8706 14.9333 13.0352 15.0642 13.1787C15.0684 13.1829 15.0684 13.1829 15.0726 13.1871L17.3984 15.513C17.8332 15.9435 17.8332 16.3867 17.4027 16.8342Z" fill="white"/>
<path d="M10.8936 4.7567C11.9995 4.94242 13.0041 5.46584 13.8062 6.26785C14.6082 7.06986 15.1274 8.07449 15.3173 9.18042C15.3637 9.45901 15.6043 9.65318 15.8787 9.65318C15.9125 9.65318 15.942 9.64896 15.9758 9.64474C16.2882 9.59408 16.495 9.29861 16.4443 8.98625C16.2164 7.64815 15.5832 6.42825 14.6166 5.46162C13.65 4.49499 12.4301 3.86182 11.092 3.63388C10.7796 3.58323 10.4884 3.79006 10.4335 4.0982C10.3786 4.40634 10.5812 4.70604 10.8936 4.7567Z" fill="white"/>
<path d="M20.0624 8.82236C19.6867 6.61894 18.6483 4.61392 17.0527 3.01834C15.4571 1.42276 13.4521 0.384366 11.2487 0.00868767C10.9405 -0.0461867 10.6493 0.164869 10.5944 0.47301C10.5438 0.785372 10.7506 1.07663 11.063 1.1315C13.03 1.46497 14.824 2.39784 16.2507 3.82035C17.6774 5.24708 18.6061 7.04106 18.9395 9.00809C18.986 9.28668 19.2266 9.48086 19.501 9.48086C19.5347 9.48086 19.5643 9.47663 19.598 9.47241C19.9062 9.42598 20.1172 9.1305 20.0624 8.82236Z" fill="white"/>
</svg>
