<svg width="95" height="90" viewBox="0 0 95 90" fill="none" xmlns="http://www.w3.org/2000/svg">
<path d="M72.5411 42.4863C72.5411 42.4863 72.5411 49.0133 64.4634 53.8864C62.217 55.2396 59.4576 53.1612 60.1062 50.617C61.3031 45.9267 62.7034 39.3938 62.7034 34.506C62.7034 25.9684 53.1075 38.0318 53.1075 38.0318L54.9059 50.8381C54.9059 50.8381 53.7473 55.0332 50.6017 58.7389C49.0687 60.5461 46.1531 59.8945 45.5075 57.6157C44.4373 53.854 43.8507 47.8164 47.2527 40.6291C53.0515 28.377 39.1309 39.329 39.1309 39.329C39.1309 39.329 42.9397 49.485 40.6521 60.4694C40.201 62.6362 37.5625 63.5177 35.8762 62.082C32.1499 58.9099 26.9554 52.4891 27.436 41.5547C27.436 41.5547 27.1146 50.791 25.0215 52.321C25.0215 52.321 17.0411 48.238 16.484 45.6378C15.9268 43.0376 16.484 51.0209 16.484 51.0209C16.484 51.0209 46.3683 59.187 30.7761 90H50.0799C50.0799 90 38.1285 77.235 53.1075 65.6138C68.0866 53.9926 70.6838 56.5898 74.2097 46.0092C77.7385 35.4317 72.5411 42.4863 72.5411 42.4863Z" fill="#525E59"/>
<path d="M20.0685 48.3648C21.2005 48.1938 22.3562 48.1584 23.4971 48.2646C23.1639 46.879 25.4192 45.8265 26.2653 46.9704C27.3001 48.3677 25.9499 51.1389 27.5919 51.7108C28.55 52.044 29.4079 51.0888 30.2393 50.511C31.3801 49.7209 32.9456 49.5912 34.2014 50.1837C34.2427 49.3406 34.284 48.4975 34.3253 47.6543C35.1094 47.6867 35.8966 47.7192 36.6807 47.7516C36.6984 47.0057 36.7132 46.2628 36.7309 45.517C40.6223 45.9828 43.3227 50.9915 47.1728 50.2545C47.6828 50.1572 48.2017 49.9538 48.7088 50.0688C49.1775 50.1719 49.5401 50.5257 49.9352 50.794C51.7659 52.044 54.2658 51.528 56.297 50.6348C58.3253 49.7415 60.2946 48.4975 62.5115 48.3913C64.2066 48.3088 66.2909 48.7598 67.2933 47.3919C67.5792 46.9999 67.7266 46.4957 68.104 46.1921C69.2006 45.3047 70.5685 46.7964 71.5797 47.7811C73.3603 49.5145 76.049 49.8624 78.5312 49.9184C79.8195 49.9479 81.1579 49.9125 82.3077 49.3318C83.4574 48.751 84.3507 47.4745 84.0942 46.2157C83.82 44.8832 82.4049 43.4946 83.2569 42.4333C84.7309 43.1143 86.6265 42.7429 87.7321 41.5519C86.5676 39.1551 88.5251 35.871 91.1872 35.7531C91.8918 35.7236 92.617 35.8739 93.295 35.6764C93.9731 35.4789 94.5686 34.7124 94.2443 34.0874C93.8286 33.2885 92.3369 33.4035 92.1718 32.519C92.0509 31.8705 92.7909 31.4342 93.1388 30.874C93.7814 29.8363 92.8705 28.3947 91.6972 28.0704C90.5239 27.7462 89.2798 28.1943 88.1743 28.7072C87.9325 26.337 86.0812 24.2173 83.764 23.6602C85.2144 23.0175 85.8542 21.0128 85.0434 19.6508C84.2327 18.2888 82.1661 17.8908 80.9103 18.8549C81.4114 17.5164 81.0872 15.9068 80.1114 14.8632C79.1356 13.8196 77.5525 13.3921 76.1816 13.799C75.7453 11.7707 75.309 9.73949 74.8727 7.71123C74.7105 6.95359 74.5307 6.16056 74.0295 5.56801C72.812 4.12936 70.3799 4.53914 68.9176 3.34518C68.5403 3.03563 68.1924 2.60522 67.703 2.57869C66.8864 2.53447 66.4206 3.63114 65.6129 3.75201C65.1589 3.81981 64.7314 3.56039 64.3039 3.39235C62.7827 2.78505 60.8695 3.41593 60.0057 4.80741C59.6785 3.56923 58.2457 2.94424 56.9662 2.9295C55.6868 2.91476 54.4309 3.32159 53.1515 3.34813C51.1055 3.3894 49.1657 2.46076 47.1316 2.23376C45.0974 2.00676 42.6004 2.90592 42.2761 4.92828C42.1228 5.87165 42.456 6.97127 41.8428 7.70239C41.4625 8.15639 40.8375 8.30084 40.3039 8.55732C39.2102 9.08502 38.426 10.2023 38.3022 11.4081C37.5917 10.8951 36.8576 10.3527 36.4596 9.57145C36.0616 8.79022 36.1265 7.69944 36.8399 7.19238C37.2055 6.93295 37.6742 6.8622 38.0693 6.64994C39.0657 6.11634 39.3664 4.85458 39.5639 3.74022C39.6111 3.469 39.6583 3.17419 39.5344 2.92656C39.3988 2.65534 39.1011 2.51383 38.824 2.39001C37.4502 1.78566 36.0793 1.18426 34.7055 0.57991C33.376 -0.00380292 31.5099 -0.443062 30.7316 0.783326C30.481 1.18131 30.4132 1.69132 30.0919 2.03625C29.4669 2.69956 28.267 2.38411 27.5477 2.95604C26.7458 3.59281 26.9522 4.98724 26.1651 5.64465C25.7405 6.00137 25.1391 6.04264 24.6468 6.29322C23.8892 6.68237 23.4529 7.61395 23.6445 8.4453C23.8361 9.27665 24.635 9.92817 25.49 9.94585C26.2476 9.96059 26.9404 9.53313 27.6833 9.37393C28.4262 9.21474 29.4079 9.50365 29.4993 10.2583C29.5848 10.9659 28.7918 11.4906 28.0783 11.5172C27.3679 11.5407 26.6751 11.2636 25.9646 11.24C23.8538 11.1752 21.684 13.3125 19.9005 12.1805C19.2489 11.7677 18.8097 10.9659 18.0491 10.8509C16.7254 10.6504 16.1535 12.549 14.9684 13.171C13.7862 13.7901 11.8523 13.2359 11.3777 14.4829C11.2656 14.7777 11.2863 15.102 11.2509 15.4145C11.0622 17.1155 9.3435 18.1739 7.77809 18.8637C6.43673 19.4563 5.0423 19.9898 3.90436 20.9126C2.76641 21.8324 1.90853 23.2533 2.08836 24.7067C2.23871 25.942 3.11133 27.074 2.94624 28.3063C2.06773 28.6542 1.14794 29.0256 0.540637 29.7479C-0.0666601 30.4702 -0.240595 31.6582 0.428612 32.3274C1.51349 33.4153 3.3855 32.2567 4.87721 32.6134C4.9804 33.1352 5.08063 33.657 5.18381 34.1788C6.57824 34.282 7.97561 34.3852 9.37004 34.4883C9.44669 34.9659 9.52039 35.4465 9.59704 35.924C10.7026 34.5561 12.9696 35.4995 14.6176 34.8775C15.4843 34.5503 16.1181 33.8044 16.9111 33.3239C17.7042 32.8433 18.907 32.7343 19.417 33.5066C17.8073 35.2047 15.785 36.5048 13.574 37.2654C12.2178 37.7312 10.7527 38.0172 9.61767 38.8957C8.48267 39.7742 7.84295 41.5283 8.72441 42.6574C7.81642 42.6073 6.89957 42.6957 6.01811 42.9256C5.90608 43.9398 6.0299 44.9775 6.37187 45.9386C7.95792 45.6732 9.65895 46.6815 10.1925 48.1968C10.4107 48.8158 10.449 49.488 10.6908 50.0953C11.3275 51.7049 13.2615 52.4803 14.9861 52.324C16.7107 52.1678 18.2731 51.2952 19.7766 50.4402" fill="#525E59"/>
<path d="M43.4678 18.7162C42.3328 17.8082 41.1948 16.9002 40.0598 15.9922C39.7444 15.7387 39.3995 15.4763 38.9956 15.4586C38.6624 15.4439 38.3529 15.6031 38.0375 15.7063C36.1271 16.3372 34.1696 15.0371 32.1974 14.645C29.3584 14.0819 26.5312 15.4292 23.9517 16.7381C23.2884 17.0742 22.5396 17.5311 22.4688 18.2711C21.4901 17.8466 20.4376 17.4132 19.3852 17.593C18.3327 17.7729 17.3687 18.8518 17.7195 19.8601C16.6199 20.373 15.3552 19.3294 14.1583 19.5299C12.9466 19.7333 12.3099 21.0982 12.1507 22.3158C11.9915 23.5333 12.0858 24.8393 11.4785 25.9065L11.5109 26.2662C12.9113 26.4991 14.4 26.7703 15.4466 27.7284C15.877 28.1205 16.2072 28.6099 16.614 29.0285C17.9878 30.4377 20.2578 30.8799 22.0591 30.0898C23.2589 29.565 24.1934 28.5833 25.3078 27.8964C26.4222 27.2066 27.9375 26.8469 28.9958 27.6193C30.2988 28.5715 30.4964 30.9182 32.0942 31.1363C33.3294 31.3073 34.1785 30.0102 35.0128 29.0845C35.9738 28.0173 37.2975 27.2803 38.7126 27.0297C39.8328 26.8293 41.0061 26.9236 42.091 26.5787C43.1759 26.2337 44.1959 25.2196 43.9896 24.0994C43.5031 24.7273 42.262 24.2261 42.3475 23.436C42.4654 22.3364 44.2195 22.2627 44.7089 21.2722C45.1629 20.3494 44.2696 19.3589 43.4678 18.7162Z" fill="#768D84"/>
<path d="M75.5787 15.1759C74.992 14.5833 74.1017 14.1971 73.8806 13.3923C73.7892 13.0621 73.8305 12.7083 73.8452 12.3664C73.9838 9.03508 70.9709 5.90426 67.6366 5.91605C67.7221 6.30224 67.8047 6.68549 67.8901 7.07168C66.3984 6.67664 64.6886 7.37533 63.9014 8.70195C61.2364 7.85586 58.5743 7.00977 55.9093 6.16368C55.585 6.0605 55.2224 5.96027 54.9187 6.11062C54.5679 6.28455 54.4441 6.71497 54.2495 7.05399C53.6216 8.15067 52.183 8.38356 50.9684 8.73438C49.7538 9.0852 48.4006 10.0639 48.6925 11.2933L48.3181 12.3546C47.7786 14.5538 49.6034 17.0125 51.8646 17.1363C52.8256 17.1894 53.7631 16.8828 54.7035 16.6971C56.1422 16.414 57.6309 16.4022 59.0725 16.6646C59.3172 16.7088 59.5796 16.7708 59.7447 16.9594C60.3844 17.6788 58.822 18.7283 59.1934 19.6186C59.3408 19.9694 59.7388 20.1315 60.1014 20.2465C62.4215 20.9717 64.9126 21.1457 67.3094 20.7447C68.2085 20.5944 69.1637 20.3232 69.7327 19.6097C70.2663 18.9405 70.396 17.9529 71.0917 17.4547C72.2768 16.6086 74.0634 17.8203 75.3487 17.1363C76.183 17.1009 76.1653 15.7684 75.5787 15.1759Z" fill="#768D84"/>
<path d="M52.3742 40.2461C51.9585 39.3646 51.2215 38.6807 50.4609 38.0734C48.4415 36.4578 45.7824 35.1607 43.3325 35.9891C42.5749 36.2456 41.885 36.6907 41.1097 36.8824C38.4388 37.5339 35.9152 35.0074 33.1706 35.1401C30.6147 35.2639 28.5893 37.6489 26.0334 37.7609C24.8041 37.8139 23.6189 37.3275 22.3955 37.2125C21.1662 37.0976 19.7039 37.5398 19.3295 38.7102C19.076 39.5032 19.3944 40.4436 18.9728 41.1629C18.6515 41.7142 17.9941 41.9648 17.5224 42.3982C16.296 43.5214 16.5996 45.4936 17.0006 47.1091L17.089 46.7318C17.6285 46.3574 17.9882 47.3597 18.3744 47.8904C18.7753 48.4446 19.6037 48.536 20.2405 48.2825C20.8773 48.0289 21.3637 47.5101 21.8265 47.006C22.8082 45.9358 23.8135 44.8185 25.1401 44.2289C26.4668 43.6363 28.2149 43.7218 29.1583 44.8244C29.8776 45.6646 30.2432 47.0914 31.3487 47.1416C32.637 47.2005 32.9731 45.3934 33.8133 44.4146C34.7508 43.3209 36.4046 43.2973 37.8462 43.3592C38.7336 43.3975 39.6475 43.4418 40.4582 43.8014C41.2158 44.1375 41.832 44.7242 42.5601 45.1192C43.2883 45.5142 44.2494 45.6852 44.9068 45.1811C44.3584 44.5886 44.0577 43.7749 44.0872 42.9671C45.3844 43.2266 46.6786 43.483 47.9757 43.7425C49.4645 44.0402 51.2952 44.2201 52.2238 43.0202C52.8193 42.2508 52.7899 41.1276 52.3742 40.2461Z" fill="#768D84"/>
<path d="M86.3085 30.432C84.9406 31.1602 83.2101 30.7651 81.9159 29.9132C80.6217 29.0641 79.6459 27.823 78.5787 26.6998C78.1571 26.2546 77.6943 25.8124 77.1076 25.6296C76.2438 25.3614 75.327 25.7181 74.4308 25.8242C71.5063 26.1721 68.3578 23.8991 65.7812 25.3289C64.49 26.0453 63.4287 27.6461 61.99 27.3159C61.365 27.1715 60.8875 26.6733 60.3096 26.3961C59.3574 25.9392 58.2254 26.119 57.2201 26.4404C55.2478 27.0712 53.4436 28.218 52.0404 29.7392L52.3676 30.3318C51.8045 30.3672 51.2768 30.7327 51.0469 31.2486C52.5533 31.3842 53.7443 32.9968 53.4348 34.4767C53.3375 34.9455 53.1135 35.3936 53.1282 35.8712C53.1636 37.0975 54.5904 37.6901 55.7225 38.1559C57.2643 38.7897 58.6853 39.7213 59.8851 40.8799C60.1534 41.1393 60.4217 41.4282 60.516 41.7938C60.7401 42.6723 59.8674 43.4919 59.9028 44.3969C59.9411 45.3963 61.1086 46.0242 62.102 45.9093C63.0955 45.7972 63.9475 45.187 64.8054 44.6711C66.1173 43.881 67.5412 43.2708 69.0182 42.8639C69.2746 42.7932 69.5488 42.7283 69.8023 42.8079C70.05 42.8816 70.2416 43.0821 70.4775 43.1853C71.185 43.5007 71.9367 42.914 72.544 42.4365C73.1513 41.9559 74.1153 41.5786 74.6165 42.1711C73.9031 44.3615 76.1053 46.9204 78.3782 46.5342C77.939 45.641 78.8411 44.6799 79.696 44.1699C80.5509 43.6599 81.5916 43.0261 81.5562 42.0296C81.5179 40.9388 80.2532 40.42 79.3835 39.7596C78.1424 38.8222 77.5144 37.1388 77.8387 35.6176C77.9006 35.3287 78.0038 35.031 78.2279 34.8364C78.5787 34.5386 79.0946 34.5858 79.5515 34.6389C81.4766 34.86 83.4282 34.8423 85.3503 34.5888C85.8161 34.5268 86.2996 34.4414 86.6681 34.1524C87.7442 33.3064 87.0632 31.5847 86.3085 30.432Z" fill="#768D84"/>
</svg>
