<svg width="85" height="85" viewBox="0 0 85 85" fill="none" xmlns="http://www.w3.org/2000/svg">
<path d="M42.5019 83.8357C65.3322 83.8357 83.8398 65.3281 83.8398 42.4978C83.8398 19.6675 65.3322 1.15991 42.5019 1.15991C19.6717 1.15991 1.16406 19.6675 1.16406 42.4978C1.16406 65.3281 19.6717 83.8357 42.5019 83.8357Z" fill="#525E59"/>
<path d="M42.5019 78.5234C62.3982 78.5234 78.5273 62.3943 78.5273 42.498C78.5273 22.6018 62.3982 6.47266 42.5019 6.47266C22.6057 6.47266 6.47656 22.6018 6.47656 42.498C6.47656 62.3943 22.6057 78.5234 42.5019 78.5234Z" fill="#FFFCFB"/>
<path d="M42.502 11.9565C42.1938 11.9567 41.8983 12.0792 41.6804 12.2971C41.4625 12.515 41.34 12.8105 41.3398 13.1187V19.5103C41.3398 19.8185 41.4623 20.1141 41.6802 20.332C41.8982 20.5499 42.1937 20.6724 42.502 20.6724C42.8102 20.6724 43.1057 20.5499 43.3237 20.332C43.5416 20.1141 43.6641 19.8185 43.6641 19.5103V13.1187C43.6639 12.8105 43.5414 12.515 43.3235 12.2971C43.1056 12.0792 42.8101 11.9567 42.502 11.9565Z" fill="#525E59"/>
<path d="M58.7592 27.4054C58.9118 27.4056 59.063 27.3756 59.2039 27.3171C59.3449 27.2587 59.4729 27.1729 59.5806 27.0648L64.1002 22.5491C64.2082 22.4412 64.2938 22.3131 64.3522 22.1721C64.4106 22.0311 64.4406 21.88 64.4406 21.7274C64.4406 21.5747 64.4106 21.4236 64.3522 21.2826C64.2938 21.1416 64.2082 21.0135 64.1002 20.9056C63.9923 20.7977 63.8642 20.7121 63.7232 20.6536C63.5822 20.5952 63.4311 20.5652 63.2785 20.5652C63.1258 20.5652 62.9747 20.5952 62.8337 20.6536C62.6927 20.7121 62.5646 20.7977 62.4567 20.9056L57.9377 25.4252C57.7753 25.5877 57.6647 25.7947 57.62 26.0201C57.5752 26.2454 57.5982 26.479 57.6861 26.6913C57.774 26.9035 57.9229 27.085 58.1139 27.2127C58.3049 27.3404 58.5294 27.4086 58.7592 27.4087V27.4054Z" fill="#525E59"/>
<path d="M25.4264 57.9316L20.9068 62.4505C20.7989 62.5584 20.7133 62.6865 20.6549 62.8275C20.5965 62.9685 20.5664 63.1197 20.5664 63.2723C20.5664 63.4249 20.5965 63.576 20.6549 63.717C20.7133 63.858 20.7989 63.9861 20.9068 64.0941C21.0147 64.202 21.1428 64.2876 21.2838 64.346C21.4248 64.4044 21.576 64.4345 21.7286 64.4345C21.8812 64.4345 22.0323 64.4044 22.1733 64.346C22.3143 64.2876 22.4424 64.202 22.5504 64.0941L27.0693 59.5745C27.2872 59.3566 27.4095 59.0611 27.4095 58.753C27.4095 58.4449 27.2872 58.1494 27.0693 57.9316C26.8514 57.7137 26.556 57.5913 26.2479 57.5913C25.9397 57.5913 25.6443 57.7137 25.4264 57.9316Z" fill="#525E59"/>
<path d="M71.8818 41.3362H65.4902C65.182 41.3362 64.8864 41.4586 64.6685 41.6766C64.4506 41.8945 64.3281 42.1901 64.3281 42.4983C64.3281 42.8065 64.4506 43.1021 64.6685 43.32C64.8864 43.538 65.182 43.6604 65.4902 43.6604H71.8818C72.19 43.6604 72.4856 43.538 72.7036 43.32C72.9215 43.1021 73.0439 42.8065 73.0439 42.4983C73.0439 42.1901 72.9215 41.8945 72.7036 41.6766C72.4856 41.4586 72.19 41.3362 71.8818 41.3362Z" fill="#525E59"/>
<path d="M19.5146 41.3362H13.123C12.8148 41.3362 12.5192 41.4586 12.3013 41.6766C12.0834 41.8945 11.9609 42.1901 11.9609 42.4983C11.9609 42.8065 12.0834 43.1021 12.3013 43.32C12.5192 43.538 12.8148 43.6604 13.123 43.6604H19.5146C19.8229 43.6604 20.1184 43.538 20.3364 43.32C20.5543 43.1021 20.6768 42.8065 20.6768 42.4983C20.6768 42.1901 20.5543 41.8945 20.3364 41.6766C20.1184 41.4586 19.8229 41.3362 19.5146 41.3362Z" fill="#525E59"/>
<path d="M59.5808 57.9316C59.3629 57.7137 59.0675 57.5913 58.7594 57.5913C58.4513 57.5913 58.1558 57.7137 57.9379 57.9316C57.72 58.1494 57.5977 58.4449 57.5977 58.753C57.5977 59.0611 57.72 59.3566 57.9379 59.5745L62.4569 64.0941C62.5648 64.202 62.6929 64.2876 62.8339 64.346C62.9749 64.4044 63.126 64.4345 63.2786 64.4345C63.4313 64.4345 63.5824 64.4044 63.7234 64.346C63.8644 64.2876 63.9925 64.202 64.1004 64.0941C64.2083 63.9861 64.2939 63.858 64.3523 63.717C64.4107 63.576 64.4408 63.4249 64.4408 63.2723C64.4408 63.1197 64.4107 62.9685 64.3523 62.8275C64.2939 62.6865 64.2083 62.5584 64.1004 62.4505L59.5808 57.9316Z" fill="#525E59"/>
<path d="M22.5504 20.9022C22.3324 20.6842 22.0368 20.5618 21.7286 20.5618C21.4203 20.5618 21.1247 20.6842 20.9068 20.9022C20.6888 21.1201 20.5664 21.4157 20.5664 21.7239C20.5664 22.0322 20.6888 22.3278 20.9068 22.5457L25.4264 27.0647C25.6443 27.2825 25.9397 27.4049 26.2479 27.4049C26.556 27.4049 26.8514 27.2825 27.0693 27.0647C27.2872 26.8468 27.4095 26.5513 27.4095 26.2432C27.4095 25.9351 27.2872 25.6396 27.0693 25.4218L22.5504 20.9022Z" fill="#525E59"/>
<path d="M55.2459 68.9669L50.1791 63.9001C45.2161 65.6828 39.7875 65.6828 34.8246 63.9001L29.7578 68.9669C33.7331 70.8827 38.0891 71.8776 42.5018 71.8776C46.9146 71.8776 51.2706 70.8827 55.2459 68.9669Z" fill="#525E59"/>
<path d="M45.462 43.3196L42.5009 27.6836L39.5398 43.3196C38.4502 43.9681 37.6036 44.9563 37.13 46.1326C36.6564 47.3088 36.582 48.608 36.9183 49.8306C37.2545 51.0532 37.9829 52.1317 38.9914 52.9002C39.9999 53.6688 41.2329 54.0851 42.5009 54.0851C43.7689 54.0851 45.0019 53.6688 46.0104 52.9002C47.0189 52.1317 47.7473 51.0532 48.0835 49.8306C48.4198 48.608 48.3454 47.3088 47.8718 46.1326C47.3982 44.9563 46.5516 43.9681 45.462 43.3196Z" fill="#525E59"/>
<path d="M42.5 0C34.0943 0 25.8774 2.49258 18.8883 7.16254C11.8992 11.8325 6.45186 18.4701 3.23514 26.2359C0.0184144 34.0018 -0.823227 42.5471 0.816644 50.7913C2.45652 59.0355 6.50425 66.6083 12.448 72.552C18.3917 78.4958 25.9645 82.5435 34.2087 84.1833C42.4529 85.8232 50.9982 84.9816 58.764 81.7649C66.5299 78.5481 73.1675 73.1008 77.8375 66.1117C82.5074 59.1226 85 50.9057 85 42.5C84.9872 31.2322 80.5054 20.4296 72.5379 12.4621C64.5704 4.49462 53.7678 0.0128303 42.5 0V0ZM42.5 82.6758C34.554 82.6758 26.7864 80.3195 20.1795 75.9049C13.5727 71.4903 8.42324 65.2158 5.38244 57.8746C2.34163 50.5334 1.54601 42.4554 3.0962 34.6621C4.64639 26.8687 8.47276 19.7101 14.0914 14.0914C19.7101 8.47275 26.8688 4.64638 34.6621 3.09618C42.4554 1.54599 50.5335 2.34161 57.8746 5.38242C65.2158 8.42323 71.4904 13.5727 75.9049 20.1795C80.3195 26.7864 82.6758 34.554 82.6758 42.5C82.6638 53.1516 78.4272 63.3635 70.8954 70.8953C63.3635 78.4272 53.1516 82.6638 42.5 82.6758Z" fill="black"/>
<path d="M42.5 5.3125C37.2088 5.31681 31.9794 6.44948 27.1607 8.63493C22.3419 10.8204 18.0447 14.0083 14.5556 17.9861C14.4549 18.1008 14.3777 18.2342 14.3285 18.3787C14.2794 18.5232 14.2591 18.6759 14.269 18.8283C14.2889 19.1359 14.4302 19.4229 14.6618 19.6264C14.8934 19.8298 15.1964 19.9329 15.504 19.9129C15.8116 19.893 16.0986 19.7517 16.3021 19.5201C21.6866 13.39 29.0514 9.34382 37.1131 8.08666C45.1747 6.82951 53.4219 8.44115 60.4172 12.6407C67.4125 16.8402 72.7124 23.3614 75.393 31.0675C78.0737 38.7737 77.9652 47.1761 75.0864 54.8105C72.2076 62.4448 66.7411 68.8269 59.6396 72.8444C52.5382 76.8618 44.2521 78.2599 36.2257 76.795C28.1992 75.33 20.9413 71.095 15.7169 64.8279C10.4925 58.5608 7.63299 50.6591 7.63672 42.5C7.63672 42.1918 7.51428 41.8962 7.29634 41.6783C7.07841 41.4603 6.78282 41.3379 6.47461 41.3379C6.1664 41.3379 5.87081 41.4603 5.65287 41.6783C5.43494 41.8962 5.3125 42.1918 5.3125 42.5C5.3125 49.855 7.49351 57.0448 11.5797 63.1603C15.6659 69.2757 21.4738 74.0421 28.269 76.8568C35.0641 79.6714 42.5412 80.4078 49.7549 78.9729C56.9686 77.538 63.5948 73.9963 68.7955 68.7955C73.9963 63.5948 77.538 56.9686 78.9729 49.7549C80.4078 42.5412 79.6714 35.0641 76.8568 28.269C74.0421 21.4738 69.2757 15.6659 63.1603 11.5797C57.0448 7.49351 49.855 5.3125 42.5 5.3125Z" fill="black"/>
<path d="M7.71496 33.0412C7.82549 33.0755 7.94056 33.0929 8.05629 33.093C8.30424 33.0923 8.54549 33.0124 8.74487 32.865C8.94424 32.7176 9.0913 32.5104 9.16461 32.2735C9.59561 30.8723 10.1151 29.4998 10.7198 28.1643C10.787 28.0247 10.8255 27.873 10.8332 27.7183C10.8409 27.5636 10.8176 27.4089 10.7646 27.2633C10.7117 27.1177 10.6302 26.9842 10.525 26.8705C10.4197 26.7569 10.2928 26.6654 10.1517 26.6015C10.0106 26.5375 9.8582 26.5024 9.70334 26.4982C9.54849 26.494 9.39436 26.5208 9.25001 26.577C9.10565 26.6332 8.97398 26.7177 8.86273 26.8255C8.75147 26.9333 8.66288 27.0622 8.60215 27.2047C7.95675 28.6291 7.40225 30.093 6.94199 31.5875C6.89702 31.7337 6.88135 31.8874 6.89588 32.0396C6.91041 32.1919 6.95486 32.3398 7.02667 32.4748C7.09848 32.6099 7.19625 32.7294 7.31436 32.8266C7.43247 32.9238 7.56861 32.9967 7.71496 33.0412Z" fill="black"/>
<path d="M42.498 20.6724C42.8062 20.6722 43.1017 20.5497 43.3196 20.3318C43.5375 20.1139 43.66 19.8184 43.6602 19.5103V13.1187C43.6602 12.8104 43.5377 12.5149 43.3198 12.2969C43.1018 12.079 42.8063 11.9565 42.498 11.9565C42.1898 11.9565 41.8942 12.079 41.6763 12.2969C41.4584 12.5149 41.3359 12.8104 41.3359 13.1187V19.5103C41.3361 19.8184 41.4586 20.1139 41.6765 20.3318C41.8944 20.5497 42.1899 20.6722 42.498 20.6724Z" fill="black"/>
<path d="M62.4529 20.902L57.934 25.4216C57.7161 25.6395 57.5937 25.935 57.5938 26.2431C57.5937 26.5512 57.7161 26.8467 57.934 27.0645C58.1519 27.2824 58.4473 27.4048 58.7554 27.4048C59.0636 27.4048 59.359 27.2824 59.5769 27.0645L64.0965 22.5489C64.2044 22.441 64.29 22.3129 64.3484 22.1719C64.4068 22.0309 64.4369 21.8797 64.4369 21.7271C64.4369 21.5745 64.4068 21.4234 64.3484 21.2824C64.29 21.1414 64.2044 21.0133 64.0965 20.9053C63.9886 20.7974 63.8605 20.7118 63.7195 20.6534C63.5785 20.595 63.4273 20.5649 63.2747 20.5649C63.1221 20.5649 62.971 20.595 62.83 20.6534C62.689 20.7118 62.5609 20.7974 62.4529 20.9053V20.902Z" fill="black"/>
<path d="M25.4225 57.9316L20.9029 62.4505C20.795 62.5584 20.7094 62.6865 20.651 62.8275C20.5926 62.9685 20.5625 63.1197 20.5625 63.2723C20.5625 63.4249 20.5926 63.576 20.651 63.717C20.7094 63.858 20.795 63.9861 20.9029 64.0941C21.0108 64.202 21.1389 64.2876 21.2799 64.346C21.4209 64.4044 21.572 64.4345 21.7247 64.4345C21.8773 64.4345 22.0284 64.4044 22.1694 64.346C22.3104 64.2876 22.4385 64.202 22.5464 64.0941L27.0654 59.5745C27.2832 59.3566 27.4056 59.0611 27.4056 58.753C27.4056 58.4449 27.2832 58.1494 27.0654 57.9316C26.8475 57.7137 26.552 57.5913 26.2439 57.5913C25.9358 57.5913 25.6404 57.7137 25.4225 57.9316Z" fill="black"/>
<path d="M65.4863 43.6599H71.8779C72.1861 43.6599 72.4817 43.5375 72.6997 43.3195C72.9176 43.1016 73.04 42.806 73.04 42.4978C73.04 42.1896 72.9176 41.894 72.6997 41.6761C72.4817 41.4581 72.1861 41.3357 71.8779 41.3357H65.4863C65.1781 41.3357 64.8825 41.4581 64.6646 41.6761C64.4467 41.894 64.3242 42.1896 64.3242 42.4978C64.3242 42.806 64.4467 43.1016 64.6646 43.3195C64.8825 43.5375 65.1781 43.6599 65.4863 43.6599Z" fill="black"/>
<path d="M13.1191 43.6599H19.5107C19.819 43.6599 20.1145 43.5375 20.3325 43.3195C20.5504 43.1016 20.6728 42.806 20.6728 42.4978C20.6728 42.1896 20.5504 41.894 20.3325 41.6761C20.1145 41.4581 19.819 41.3357 19.5107 41.3357H13.1191C12.8109 41.3357 12.5153 41.4581 12.2974 41.6761C12.0795 41.894 11.957 42.1896 11.957 42.4978C11.957 42.806 12.0795 43.1016 12.2974 43.3195C12.5153 43.5375 12.8109 43.6599 13.1191 43.6599Z" fill="black"/>
<path d="M57.934 59.5745L62.4529 64.0941C62.5609 64.202 62.689 64.2876 62.83 64.346C62.971 64.4044 63.1221 64.4345 63.2747 64.4345C63.4273 64.4345 63.5785 64.4044 63.7195 64.346C63.8605 64.2876 63.9886 64.202 64.0965 64.0941C64.2044 63.9861 64.29 63.858 64.3484 63.717C64.4068 63.576 64.4369 63.4249 64.4369 63.2723C64.4369 63.1197 64.4068 62.9685 64.3484 62.8275C64.29 62.6865 64.2044 62.5584 64.0965 62.4505L59.5769 57.9316C59.359 57.7137 59.0636 57.5913 58.7554 57.5913C58.4473 57.5913 58.1519 57.7137 57.934 57.9316C57.7161 58.1494 57.5937 58.4449 57.5938 58.753C57.5937 59.0611 57.7161 59.3566 57.934 59.5745Z" fill="black"/>
<path d="M27.066 25.4215L22.5504 20.9019C22.3324 20.684 22.0368 20.5615 21.7286 20.5615C21.4203 20.5615 21.1247 20.684 20.9068 20.9019C20.6888 21.1199 20.5664 21.4155 20.5664 21.7237C20.5664 22.0319 20.6888 22.3275 20.9068 22.5455L25.4264 27.0644C25.5343 27.1723 25.6623 27.2579 25.8033 27.3162C25.9442 27.3746 26.0953 27.4047 26.2479 27.4047C26.4004 27.4047 26.5515 27.3746 26.6924 27.3162C26.8334 27.2579 26.9614 27.1723 27.0693 27.0644C27.1772 26.9565 27.2627 26.8285 27.3211 26.6875C27.3795 26.5466 27.4096 26.3955 27.4096 26.243C27.4096 26.0904 27.3795 25.9393 27.3211 25.7984C27.2627 25.6575 27.1772 25.5294 27.0693 25.4215H27.066Z" fill="black"/>
<path d="M34.0009 63.0785L28.9341 68.1453C28.803 68.2764 28.7051 68.437 28.6487 68.6137C28.5924 68.7904 28.5791 68.978 28.61 69.1608C28.641 69.3437 28.7152 69.5165 28.8266 69.6648C28.938 69.8131 29.0832 69.9326 29.2502 70.0133C33.3797 72.0158 37.9114 73.0507 42.5009 73.0394C42.8091 73.0394 43.1047 72.917 43.3226 72.699C43.5405 72.4811 43.663 72.1855 43.663 71.8773C43.663 71.5691 43.5405 71.2735 43.3226 71.0556C43.1047 70.8376 42.8091 70.7152 42.5009 70.7152C38.8195 70.7245 35.1727 70.0047 31.771 68.5975L35.1331 65.2353C39.9232 66.7819 45.0785 66.7819 49.8686 65.2353L54.4228 69.7895C54.6419 70.0012 54.9354 70.1184 55.2402 70.1158C55.5449 70.1132 55.8363 69.9911 56.0519 69.7756C56.2674 69.5602 56.3896 69.2688 56.3923 68.9641C56.3951 68.6594 56.278 68.3658 56.0663 68.1466L50.9995 63.0798C50.8439 62.9236 50.647 62.8151 50.4318 62.767C50.2167 62.7189 49.9923 62.7332 49.785 62.8082C45.0747 64.4912 39.927 64.4912 35.2168 62.8082C35.0094 62.733 34.7848 62.7186 34.5695 62.7664C34.3542 62.8143 34.1569 62.9225 34.0009 63.0785Z" fill="black"/>
<path d="M35.5469 48.2878C35.5455 49.4816 35.8516 50.6556 36.4356 51.6967C37.0196 52.7379 37.8618 53.6111 38.8812 54.2323C39.9006 54.8535 41.0628 55.2018 42.2558 55.2436C43.4488 55.2853 44.6325 55.0191 45.6928 54.4707C46.7532 53.9223 47.6544 53.11 48.3097 52.1123C48.9651 51.1145 49.3525 49.9647 49.4346 48.7738C49.5167 47.5829 49.2907 46.3909 48.7784 45.3126C48.2662 44.2343 47.4849 43.3061 46.5099 42.6174L43.6405 27.4668C43.5898 27.2012 43.4481 26.9615 43.2397 26.7891C43.0313 26.6168 42.7694 26.5225 42.4989 26.5225C42.2285 26.5225 41.9666 26.6168 41.7582 26.7891C41.5498 26.9615 41.4081 27.2012 41.3574 27.4668L38.488 42.6174C37.5823 43.2607 36.843 44.1107 36.3315 45.0968C35.82 46.083 35.551 47.1769 35.5469 48.2878ZM40.1336 44.3167C40.2747 44.2325 40.3963 44.1192 40.4904 43.9845C40.5845 43.8498 40.6489 43.6966 40.6794 43.5351L42.4989 33.9288L44.3185 43.5351C44.3489 43.6966 44.4132 43.8497 44.5072 43.9844C44.6012 44.1192 44.7227 44.2324 44.8637 44.3167C45.735 44.8348 46.4121 45.6245 46.791 46.5647C47.1699 47.5049 47.2296 48.5435 46.961 49.521C46.6924 50.4984 46.1103 51.3606 45.3041 51.9751C44.4979 52.5896 43.5123 52.9224 42.4986 52.9224C41.4849 52.9224 40.4993 52.5896 39.6931 51.9751C38.887 51.3606 38.3048 50.4984 38.0362 49.521C37.7676 48.5435 37.8273 47.5049 38.2062 46.5647C38.5851 45.6245 39.2623 44.8348 40.1336 44.3167Z" fill="black"/>
</svg>
