<svg width="80" height="81" viewBox="0 0 80 81" fill="none" xmlns="http://www.w3.org/2000/svg">
<path fill-rule="evenodd" clip-rule="evenodd" d="M58.7144 77.8851C65.1748 75.6072 70.3028 71.1186 74.1341 65.6166C77.2925 61.0743 77.1715 61.1235 73.6048 59.2447L71.0789 57.922L62.0477 53.1778L52.6666 48.2453L44.8783 44.1558C46.7895 58.173 38.9069 67.343 29.3867 69.3428C31.6299 72.2529 34.4922 74.6834 37.8392 76.4411C44.313 79.8402 51.8278 80.32 58.7144 77.8851Z" fill="#525E59"/>
<path fill-rule="evenodd" clip-rule="evenodd" d="M3.7809 50.4517C8.19999 65.9173 19.6493 71.3834 29.3848 69.3432C38.905 67.3433 46.7876 58.1734 44.8764 44.1562C44.7507 43.2458 44.5848 42.3132 44.3783 41.3626C44.2078 40.6004 44.0149 39.8246 43.7862 39.0354C43.2299 37.0894 41.9018 34.0402 40.049 30.5067C33.4766 17.9735 20.2954 -0.693782 11.52 1.80836C0.268157 5.01893 1.2506 41.5956 3.7809 50.4517Z" fill="#8DA69B"/>
<path fill-rule="evenodd" clip-rule="evenodd" d="M44.8782 44.1558L52.6665 48.2453L62.0477 53.1778L71.0788 57.922C75.3633 49.7699 83.8067 14.1663 73.4476 8.72715C65.4887 4.54347 49.1357 19.6099 40.0508 30.5063C41.9037 34.0398 43.2316 37.089 43.788 39.0351C44.2949 40.8061 44.6539 42.5146 44.8782 44.1558Z" fill="#8DA69B"/>
<path d="M74.1827 7.32689C70.0255 5.14147 63.9848 6.94641 56.2289 12.6906C49.4915 17.6805 43.571 24.0164 40.3415 27.7262C38.08 23.628 35.2557 19.1042 32.1974 14.9577C26.4451 7.1584 18.1127 -1.7171 11.0866 0.287013C4.05968 2.29224 1.6716 14.228 0.90574 23.8879C0.052551 34.6492 0.944658 46.2809 2.26043 50.8862C4.51483 58.7753 8.7186 64.7704 14.4169 68.2235C17.8246 70.2885 21.5927 71.343 25.4014 71.343C26.5142 71.343 27.6307 71.2499 28.7425 71.0686C31.0624 73.865 33.8694 76.1419 37.1018 77.8418C41.0846 79.9347 45.4102 81 49.8283 81C51.5171 81 53.2203 80.8442 54.9218 80.5306C55.781 80.3723 56.3491 79.5474 56.1908 78.6882C56.0324 77.8288 55.207 77.2613 54.3483 77.4192C48.9003 78.4235 43.4451 77.6012 38.574 75.0414C36.1733 73.779 34.0379 72.1563 32.1994 70.2047C37.3902 68.4309 41.6077 64.7457 44.1498 59.732C46.0697 55.9452 46.9265 51.6014 46.7123 46.9066L51.9297 49.6459L72.8661 60.6445L73.0549 60.7438C73.7049 61.0859 74.427 61.4659 74.7565 61.7081C74.5116 62.3007 73.5907 63.625 72.834 64.7133C70.9576 67.4108 68.8241 69.7508 66.4925 71.6679C65.8177 72.2229 65.7204 73.2197 66.2754 73.8945C66.588 74.2749 67.0413 74.4717 67.4982 74.4717C67.8517 74.4717 68.2075 74.3537 68.502 74.1117C71.0577 72.0101 73.3892 69.4558 75.4314 66.5197C77.3232 63.7989 78.2729 62.4331 77.9025 60.9158C77.5675 59.5431 76.3583 58.9068 74.5281 57.9438L73.1568 57.2234C75.3232 52.2339 78.0905 42.1681 79.3224 32.5071C80.5483 22.895 80.6513 10.7235 74.1827 7.32689ZM30.2912 67.4882C29.9083 67.5977 29.5202 67.6932 29.1281 67.7766C29.0774 67.7848 29.027 67.7954 28.977 67.8086C20.2779 69.5801 9.55344 64.8921 5.30268 50.0169C4.06237 45.6758 3.23449 34.5472 4.05983 24.1377C4.6137 17.1527 5.8113 11.6697 7.50961 8.0657C7.50344 8.14417 7.49727 8.22248 7.49158 8.29968C7.23323 11.7895 7.36406 16.4547 7.88044 22.1657C8.80055 32.3447 10.7703 43.5467 12.0679 48.0878C12.2665 48.7826 12.8997 49.2355 13.5882 49.2355C13.7321 49.2355 13.8784 49.2157 14.0236 49.1743C14.8637 48.9343 15.3502 48.0586 15.1102 47.2186C13.8831 42.924 11.9904 32.185 11.0722 22.3239C10.57 16.932 10.412 12.3267 10.6151 9.0059C10.7007 7.60675 10.8418 6.54901 11.0013 5.74818L23.1269 48.1909C23.3255 48.8857 23.9588 49.3387 24.6473 49.3387C24.7911 49.3387 24.9374 49.3189 25.0827 49.2774C25.9227 49.0374 26.4092 48.1619 26.1692 47.3217L14.0439 4.88155C14.602 5.47734 15.2802 6.30063 16.0912 7.44285C18.0176 10.1557 20.3157 14.1502 22.7374 18.9944C27.1652 27.8517 31.2309 37.9713 32.4584 42.2678C32.6984 43.1078 33.5736 43.5946 34.4141 43.3543C35.2542 43.1143 35.7406 42.2387 35.5006 41.3986C34.2026 36.8558 29.9583 26.3027 25.3644 17.1749C22.7863 12.0523 20.4334 8.02125 18.3709 5.194C18.3277 5.13483 18.2836 5.07471 18.2393 5.01475C21.584 7.18024 25.4941 11.1992 29.6514 16.8357C35.8496 25.2396 41.0254 35.1278 42.2659 39.4698C46.7305 55.0935 39.1882 64.9459 30.2912 67.4882ZM41.9354 30.7234C49.6423 21.6492 59.2396 13.2022 66.2156 10.4919C63.9161 12.5441 61.1768 15.5085 58.064 19.3149C53.2273 25.2293 48.2382 32.2893 44.9362 37.4508C44.3097 35.6744 43.2752 33.3478 41.9354 30.7234ZM76.1843 32.1073C74.9994 41.401 72.3931 50.9908 70.3523 55.7502L64.1552 52.4945C66.0699 48.4943 68.7462 41.724 70.9688 35.205C71.2507 34.378 70.8089 33.4791 69.9821 33.1972C69.1544 32.9151 68.2563 33.357 67.9742 34.1839C65.5942 41.1648 63.0133 47.5144 61.3505 51.021L53.4008 46.8446L46.3201 43.127C46.2414 42.6361 46.1521 42.1422 46.0515 41.6454C49.0306 36.697 54.7191 28.4453 60.2355 21.658C65.2963 15.4315 68.4608 12.561 70.3368 11.2413L57.3578 35.9221C56.9512 36.6954 57.2483 37.6519 58.0216 38.0585C58.7952 38.4654 59.7516 38.1679 60.158 37.3946L73.9747 11.1211C76.7173 14.1185 77.5271 21.5753 76.1843 32.1073Z" fill="black"/>
<path d="M25.4711 53.4716C24.8534 54.0894 24.8534 55.0912 25.4711 55.7089L25.4756 55.7134C25.7839 56.0217 26.1873 56.1756 26.5909 56.1756C26.9958 56.1756 27.4011 56.0206 27.7105 55.7112C28.3283 55.0934 28.3261 54.0894 27.7083 53.4716C27.0904 52.8539 26.0891 52.8539 25.4711 53.4716Z" fill="black"/>
<path d="M60.7147 75.3538C59.9332 75.7446 59.6165 76.6947 60.0072 77.4763C60.2844 78.0306 60.843 78.351 61.4235 78.351C61.6612 78.351 61.9027 78.2972 62.1297 78.1836L62.1387 78.1792C62.9202 77.7884 63.2325 76.8404 62.8418 76.0589C62.4508 75.2776 61.4958 74.9632 60.7147 75.3538Z" fill="black"/>
</svg>
