<svg width="71" height="42" viewBox="0 0 71 42" fill="none" xmlns="http://www.w3.org/2000/svg">
<path d="M32.4346 40.1902C8.74037 40.1902 1.97894 31.5987 1.97894 21.0004C1.97894 10.4021 8.74037 1.81055 32.4346 1.81055C61.4751 1.81055 69.1914 21.0004 69.1914 21.0004C69.0805 21.2829 61.5859 40.1902 32.4346 40.1902Z" fill="#525E59"/>
<path d="M50.9456 38.5395C55.3574 36.9076 59.2833 34.6259 62.6143 31.7581C68.2556 26.9015 70.3218 21.9317 70.4821 21.5317C70.5697 21.3131 70.6036 21.076 70.5772 20.8417C70.5637 20.7226 70.5351 20.6045 70.49 20.49C70.4887 20.4869 70.484 20.4739 70.4827 20.4709C70.3657 20.1824 68.3151 15.2682 62.6157 10.3497C59.2628 7.45621 55.3276 5.1525 50.9196 3.50285C45.4464 1.45453 39.2276 0.416016 32.4361 0.416016C20.9655 0.416016 12.8052 2.34512 7.48886 6.31352C2.90838 9.73272 0.585938 14.674 0.585938 21.0003C0.585938 27.3265 2.90838 32.2679 7.48873 35.687C12.805 39.6554 20.9654 41.5845 32.4359 41.5845C39.2553 41.5846 45.483 40.5602 50.9456 38.5395ZM9.15697 8.5486C13.9069 5.00279 21.7391 3.20494 32.4359 3.20494C46.9225 3.20494 55.7878 8.18274 60.674 12.3585C61.3399 12.9277 61.9526 13.4981 62.5145 14.0603C56.7768 11.0428 47.3354 8.05395 32.4359 8.05395C21.0758 8.05395 13.0012 9.20075 7.75123 11.56C6.8374 11.9707 6.01107 12.4201 5.27088 12.9069C6.21069 11.231 7.5024 9.78358 9.15697 8.5486ZM9.15697 33.4522C7.50213 32.2169 6.21041 30.7694 5.27061 29.0935C5.64603 29.3404 6.04224 29.5781 6.46224 29.8055C10.7161 32.1073 17.2123 33.4206 26.322 33.8202C27.0915 33.854 27.7425 33.2578 27.7763 32.4883C27.812 31.7161 27.2137 31.0678 26.4444 31.0341C11.1365 30.3625 3.37486 26.9866 3.37486 21.0003C3.37486 14.2602 13.1524 10.8426 32.4359 10.8426C46.9823 10.8426 55.9014 13.8311 60.822 16.3384C64.6688 18.2983 66.7264 20.2721 67.5682 21.2107C66.8492 22.6738 64.8635 26.1417 60.7948 29.6446C55.9457 33.8193 47.0893 38.796 32.4359 38.796C21.7392 38.7957 13.907 36.9979 9.15697 33.4522Z" fill="black"/>
<path d="M33.832 32.5528C33.832 31.7827 33.2078 31.1584 32.4376 31.1584C32.087 31.1584 31.7401 31.1573 31.3968 31.155C30.6267 31.1498 29.9982 31.7701 29.993 32.5401C29.993 32.5432 29.993 32.5464 29.993 32.5495C29.993 33.3152 30.6111 33.9386 31.3781 33.9438C31.7274 33.9461 32.0805 33.9472 32.4376 33.9472C33.2076 33.9472 33.832 33.323 33.832 32.5528Z" fill="black"/>
</svg>
