<svg width="42" height="42" viewBox="0 0 42 42" fill="none" xmlns="http://www.w3.org/2000/svg">
<path d="M41.8427 0.628605C41.6249 0.240434 41.2146 0 40.7695 0H1.23045C0.785346 0 0.374943 0.240434 0.157232 0.628605C-0.0603964 1.01678 -0.0516191 1.49231 0.180529 1.87204L14.4975 25.3002V36.8156C14.4975 37.3286 14.8157 37.7877 15.2959 37.9678L25.8396 41.9217C25.9797 41.9742 26.126 42 26.2716 42C26.5188 42 26.7638 41.9256 26.9726 41.7809C27.3043 41.551 27.5022 41.1731 27.5022 40.7695V25.3002L41.8194 1.87212C42.0516 1.49231 42.0604 1.01686 41.8427 0.628605Z" fill="#5C6863"/>
<path d="M41.8427 0.628605C41.625 0.240434 41.2146 0 40.7695 0H21V40.1067L25.8397 41.9217C25.9798 41.9742 26.1261 42 26.2717 42C26.5189 42 26.7639 41.9256 26.9727 41.7809C27.3044 41.551 27.5023 41.1731 27.5023 40.7695V25.3002L41.8195 1.87212C42.0516 1.49231 42.0605 1.01686 41.8427 0.628605Z" fill="#525E59"/>
</svg>
